<svg width="40" height="40" viewBox="0 0 40 40" fill="none" xmlns="http://www.w3.org/2000/svg">
<path fill-rule="evenodd" clip-rule="evenodd" d="M22.6511 18.017H16.3493C13.8571 19.8547 11 23.5765 11 26.5169C11 30.5861 13.2666 32.7502 19.4999 32.7502C25.7331 32.7502 27.9998 30.5861 27.9998 26.5169C27.9998 23.5765 25.1427 19.8547 22.6511 18.017Z" stroke="#7C7C7B" stroke-width="2" stroke-linecap="round"/>
<path d="M22.3333 22.1547V21.417H16.6667V22.1548H18.6283C19.4532 22.1548 20.1479 22.6363 20.3421 23.2853H16.6667V24.0231H20.3421C20.1479 24.672 19.4533 25.1535 18.6283 25.1535H16.6667V25.8914H18.3777L20.1666 29.2085L20.8654 28.8374L19.2402 25.8238C20.1992 25.6091 20.9405 24.9019 21.105 24.0231H22.3333V23.2853H21.105C21.0244 22.8546 20.8059 22.4652 20.4906 22.1548H22.3333V22.1547Z" fill="#7C7C7B" stroke="#7C7C7B" stroke-width="0.6"/>
<path fill-rule="evenodd" clip-rule="evenodd" d="M21.3227 14.6171C21.2425 15.0132 21.2002 15.391 21.2002 15.7504L22.3335 14.6171H21.3227ZM17.6778 14.6171H16.6669L17.8002 15.7504C17.8002 15.391 17.758 15.0132 17.6778 14.6171ZM16.945 12.4074C16.8229 12.1282 16.6899 11.8455 16.5473 11.5603C16.2854 11.0366 16.006 10.5336 15.7263 10.0674C15.5571 9.78545 15.4236 9.57567 15.3433 9.45516L13.9539 11.1255L16.945 12.4074ZM19.5002 12.002L20.5525 9.3714H18.448L19.5002 12.002ZM22.0554 12.4074L25.0466 11.1255L23.6572 9.45516C23.5768 9.57567 23.4433 9.78545 23.2742 10.0674C22.9945 10.5336 22.715 11.0366 22.4532 11.5603C22.3105 11.8455 22.1775 12.1282 22.0554 12.4074Z" stroke="#7C7C7B" stroke-width="2"/>
</svg>
