<svg width="1440" height="100" viewBox="0 0 1440 100" fill="none" xmlns="http://www.w3.org/2000/svg">
<g clip-path="url(#clip0)">
<g clip-path="url(#clip1)">
<rect y="-0.034668" width="1211.84" height="100.07" fill="#D68E87"/>
<rect x="1211.84" y="-0.034668" width="227.825" height="100.07" fill="#C7222A"/>
</g>
<path d="M1245.89 71.8136V73.8044H1246.8C1247.37 73.8044 1247.76 73.414 1247.76 72.8099C1247.76 72.3385 1247.44 71.8136 1246.8 71.8136H1245.89ZM1246.81 74.4435H1245.89L1245.89 76.6333C1245.89 76.7051 1245.86 76.7401 1245.78 76.7401H1245.23C1245.17 76.7401 1245.12 76.7051 1245.12 76.6443V71.2629C1245.12 71.1985 1245.16 71.1616 1245.23 71.1616H1246.8C1247.88 71.1616 1248.52 71.878 1248.52 72.8173C1248.52 73.7124 1247.79 74.4435 1246.81 74.4435Z" fill="white"/>
<path d="M1250.18 71.8136V73.8044H1251.37C1251.43 73.8044 1251.48 73.775 1251.52 73.7584C1251.85 73.5319 1252.06 73.0972 1252.06 72.8099C1252.06 72.3385 1251.87 71.8136 1251.04 71.8136H1250.18ZM1252 74.2814C1251.97 74.2999 1251.96 74.3275 1251.97 74.3459C1251.99 74.3827 1252.01 74.4546 1253.02 76.543C1253.09 76.6977 1252.99 76.7401 1252.91 76.7401H1252.44C1252.24 76.7401 1252.2 76.6793 1252.14 76.5614L1251.16 74.4435H1250.18L1250.19 76.6333C1250.19 76.7051 1250.15 76.7401 1250.08 76.7401H1249.53C1249.46 76.7401 1249.42 76.7051 1249.42 76.6443V71.2629C1249.42 71.1985 1249.45 71.1616 1249.53 71.1616H1251.14C1252.29 71.1616 1252.84 71.7786 1252.84 72.7271C1252.84 73.3606 1252.4 73.9481 1252 74.2814Z" fill="white"/>
<path d="M1256.61 72.6448C1256.61 72.131 1256.22 71.7498 1255.64 71.7498C1255.04 71.7498 1254.66 72.1402 1254.66 72.6448V75.2324C1254.66 75.7665 1255.01 76.1349 1255.63 76.1349C1256.24 76.1349 1256.61 75.7757 1256.61 75.2324V72.6448ZM1255.64 76.7979C1254.65 76.7979 1253.89 76.2619 1253.89 75.2508V72.6283C1253.89 71.6706 1254.66 71.0923 1255.63 71.0923C1256.58 71.0923 1257.38 71.6337 1257.38 72.6283V75.2508C1257.38 76.2269 1256.64 76.7979 1255.64 76.7979Z" fill="white"/>
<path d="M1261.58 71.8136H1260.29V76.6333C1260.29 76.7051 1260.27 76.7401 1260.19 76.7401H1259.63C1259.56 76.7401 1259.52 76.7051 1259.52 76.6443V71.8136H1258.25C1258.18 71.8136 1258.14 71.7952 1258.14 71.7141V71.2629C1258.14 71.1985 1258.18 71.1616 1258.25 71.1616H1261.58C1261.66 71.1616 1261.69 71.1985 1261.69 71.2537V71.7141C1261.69 71.7786 1261.66 71.8136 1261.58 71.8136Z" fill="white"/>
<path d="M1265.57 76.7419H1262.58C1262.52 76.7419 1262.47 76.7051 1262.47 76.6425V71.2611C1262.47 71.2003 1262.51 71.1616 1262.58 71.1616H1265.54C1265.6 71.1616 1265.66 71.2003 1265.66 71.2611V71.7049C1265.66 71.7675 1265.62 71.8136 1265.55 71.8136H1263.25V73.5061H1265.15C1265.23 73.5061 1265.26 73.5411 1265.26 73.6129V74.066C1265.26 74.1286 1265.23 74.1654 1265.16 74.1654H1263.25V76.0826H1265.57C1265.64 76.0826 1265.68 76.1176 1265.68 76.1802V76.6333C1265.68 76.7051 1265.65 76.7419 1265.57 76.7419Z" fill="white"/>
<path d="M1269.79 71.9597L1269.44 72.2507C1269.39 72.2949 1269.29 72.2765 1269.24 72.2157C1269.02 71.9431 1268.64 71.7535 1268.26 71.7535C1267.69 71.7535 1267.35 72.1144 1267.35 72.6301V75.2619C1267.35 75.7665 1267.72 76.1385 1268.31 76.1385C1268.68 76.1385 1269.04 75.9138 1269.24 75.7057C1269.31 75.6321 1269.36 75.5676 1269.46 75.6413L1269.82 75.9396C1269.86 75.9654 1269.87 76.0391 1269.84 76.0833C1269.47 76.5547 1268.91 76.7978 1268.31 76.7978C1267.33 76.7978 1266.58 76.2564 1266.58 75.2711V72.6301C1266.58 71.6798 1267.28 71.0923 1268.25 71.0923C1268.82 71.0923 1269.36 71.2304 1269.81 71.7608C1269.87 71.8345 1269.88 71.8787 1269.79 71.9597Z" fill="white"/>
<path d="M1273.67 71.8136H1272.37V76.6333C1272.37 76.7051 1272.36 76.7401 1272.27 76.7401H1271.71C1271.64 76.7401 1271.6 76.7051 1271.6 76.6443V71.8136H1270.34C1270.26 71.8136 1270.23 71.7952 1270.23 71.7141V71.2629C1270.23 71.1985 1270.26 71.1616 1270.34 71.1616H1273.67C1273.74 71.1616 1273.78 71.1985 1273.78 71.2537V71.7141C1273.78 71.7786 1273.74 71.8136 1273.67 71.8136Z" fill="white"/>
<path d="M1275.38 76.7419H1274.81C1274.75 76.7419 1274.71 76.7051 1274.71 76.6425V71.2611C1274.71 71.2003 1274.74 71.1616 1274.81 71.1616H1275.38C1275.45 71.1616 1275.49 71.2003 1275.49 71.2519V76.6333C1275.49 76.7051 1275.46 76.7419 1275.38 76.7419Z" fill="white"/>
<path d="M1277.39 71.1616C1277.54 71.1616 1277.59 71.2279 1277.64 71.3071L1279.79 75.1949H1279.8V71.2629C1279.8 71.1985 1279.83 71.1616 1279.91 71.1616H1280.42C1280.49 71.1616 1280.53 71.1985 1280.53 71.2519V76.5596C1280.53 76.7143 1280.43 76.7438 1280.36 76.7438H1280.01C1279.87 76.7438 1279.81 76.6977 1279.77 76.6075L1277.63 72.7363H1277.6V76.6333C1277.6 76.7069 1277.59 76.7438 1277.5 76.7438H1276.98C1276.91 76.7438 1276.87 76.7069 1276.87 76.6425V71.39C1276.87 71.2353 1276.89 71.1616 1277.06 71.1616H1277.39Z" fill="white"/>
<path d="M1283.42 76.7997C1282.44 76.7997 1281.7 76.2564 1281.7 75.2692V72.6301C1281.7 71.6816 1282.46 71.0923 1283.43 71.0923C1284.03 71.0923 1284.68 71.3004 1284.98 71.8253C1285.03 71.9063 1285.01 71.9431 1284.94 72.0058L1284.58 72.2857C1284.51 72.3317 1284.44 72.2949 1284.38 72.2231C1284.13 71.8713 1283.75 71.7627 1283.44 71.7627C1282.77 71.7627 1282.47 72.1881 1282.47 72.7038V75.2619C1282.47 75.7683 1282.83 76.1385 1283.42 76.1385C1283.94 76.1385 1284.29 75.8217 1284.29 75.2803V74.376H1283.56C1283.49 74.376 1283.45 74.3484 1283.45 74.2766V73.8143C1283.45 73.7443 1283.49 73.7075 1283.56 73.7075H1284.96C1285.03 73.7075 1285.08 73.7443 1285.08 73.8143V75.2895C1285.08 76.1735 1284.4 76.7997 1283.42 76.7997Z" fill="white"/>
<path d="M1293.09 76.7419H1292.52C1292.46 76.7419 1292.41 76.7051 1292.41 76.6425V71.2611C1292.41 71.2003 1292.45 71.1616 1292.52 71.1616H1293.09C1293.16 71.1616 1293.2 71.2003 1293.2 71.2519V76.6333C1293.2 76.7051 1293.16 76.7419 1293.09 76.7419Z" fill="white"/>
<path d="M1295.1 71.1616C1295.25 71.1616 1295.29 71.2279 1295.35 71.3071L1297.5 75.1949H1297.51V71.2629C1297.51 71.1985 1297.53 71.1616 1297.61 71.1616H1298.13C1298.2 71.1616 1298.24 71.1985 1298.24 71.2519V76.5596C1298.24 76.7143 1298.14 76.7438 1298.06 76.7438H1297.72C1297.58 76.7438 1297.52 76.6977 1297.48 76.6075L1295.34 72.7363H1295.31V76.6333C1295.31 76.7069 1295.29 76.7438 1295.21 76.7438H1294.69C1294.62 76.7438 1294.58 76.7069 1294.58 76.6425V71.39C1294.58 71.2353 1294.6 71.1616 1294.77 71.1616H1295.1Z" fill="white"/>
<path d="M1301.39 76.6609C1301.37 76.7235 1301.32 76.7419 1301.26 76.7419H1300.63C1300.55 76.7419 1300.51 76.6977 1300.5 76.6517L1298.97 71.3163C1298.95 71.2353 1298.98 71.1616 1299.09 71.1616H1299.66C1299.74 71.1616 1299.77 71.1911 1299.79 71.2445L1300.59 74.3735L1300.94 75.8193H1300.97L1301.3 74.3735L1302.09 71.2445C1302.11 71.1985 1302.17 71.1616 1302.22 71.1616H1302.75C1302.92 71.1616 1302.9 71.2703 1302.88 71.3347L1301.39 76.6609Z" fill="white"/>
<path d="M1306.7 76.7419H1303.71C1303.64 76.7419 1303.6 76.7051 1303.6 76.6425V71.2611C1303.6 71.2003 1303.63 71.1616 1303.71 71.1616H1306.66C1306.72 71.1616 1306.78 71.2003 1306.78 71.2611V71.7049C1306.78 71.7675 1306.74 71.8136 1306.67 71.8136H1304.37V73.5061H1306.28C1306.35 73.5061 1306.39 73.5411 1306.39 73.6129V74.066C1306.39 74.1286 1306.35 74.1654 1306.28 74.1654H1304.37V76.0826H1306.7C1306.76 76.0826 1306.81 76.1176 1306.81 76.1802V76.6333C1306.81 76.7051 1306.77 76.7419 1306.7 76.7419Z" fill="white"/>
<path d="M1310.26 75.2085C1310.26 74.6007 1309.7 74.4018 1309.2 74.2305C1308.49 73.9856 1307.54 73.6522 1307.54 72.6319C1307.54 71.6614 1308.28 71.0923 1309.2 71.0923C1309.64 71.0923 1310.23 71.166 1310.75 71.5453C1310.86 71.6264 1310.79 71.6982 1310.76 71.7424L1310.54 72.0868C1310.49 72.1678 1310.39 72.142 1310.31 72.096C1309.9 71.8603 1309.6 71.7608 1309.29 71.7608C1308.75 71.7608 1308.31 71.9781 1308.31 72.6467C1308.31 73.1366 1308.87 73.352 1309.39 73.5436C1310.2 73.8511 1311.02 74.1219 1311.02 75.1974C1311.02 76.1735 1310.22 76.7905 1309.08 76.7905C1308.39 76.7905 1307.73 76.5474 1307.4 76.0925C1307.35 76.0299 1307.35 75.9857 1307.44 75.9138L1307.78 75.6063C1307.85 75.551 1307.9 75.586 1307.98 75.6689C1308.27 75.9654 1308.66 76.1275 1309.07 76.1275C1309.77 76.1275 1310.26 75.8125 1310.26 75.2085Z" fill="white"/>
<path d="M1315 71.8136H1313.71V76.6333C1313.71 76.7051 1313.69 76.7401 1313.61 76.7401H1313.05C1312.98 76.7401 1312.94 76.7051 1312.94 76.6443V71.8136H1311.67C1311.6 71.8136 1311.56 71.7952 1311.56 71.7141V71.2629C1311.56 71.1985 1311.6 71.1616 1311.67 71.1616H1315C1315.07 71.1616 1315.11 71.1985 1315.11 71.2537V71.7141C1315.11 71.7786 1315.07 71.8136 1315 71.8136Z" fill="white"/>
<path d="M1316.72 76.7419H1316.15C1316.08 76.7419 1316.04 76.7051 1316.04 76.6425V71.2611C1316.04 71.2003 1316.07 71.1616 1316.15 71.1616H1316.72C1316.78 71.1616 1316.83 71.2003 1316.83 71.2519V76.6333C1316.83 76.7051 1316.79 76.7419 1316.72 76.7419Z" fill="white"/>
<path d="M1318.73 71.1616C1318.87 71.1616 1318.92 71.2279 1318.97 71.3071L1321.12 75.1949H1321.14V71.2629C1321.14 71.1985 1321.16 71.1616 1321.24 71.1616H1321.75C1321.83 71.1616 1321.86 71.1985 1321.86 71.2519V76.5596C1321.86 76.7143 1321.76 76.7438 1321.69 76.7438H1321.34C1321.2 76.7438 1321.15 76.6977 1321.1 76.6075L1318.97 72.7363H1318.94V76.6333C1318.94 76.7069 1318.92 76.7438 1318.84 76.7438H1318.31C1318.24 76.7438 1318.2 76.7069 1318.2 76.6425V71.39C1318.2 71.2353 1318.22 71.1616 1318.4 71.1616H1318.73Z" fill="white"/>
<path d="M1324.75 76.7997C1323.77 76.7997 1323.03 76.2564 1323.03 75.2692V72.6301C1323.03 71.6816 1323.79 71.0923 1324.76 71.0923C1325.36 71.0923 1326.01 71.3004 1326.31 71.8253C1326.36 71.9063 1326.34 71.9431 1326.27 72.0058L1325.91 72.2857C1325.85 72.3317 1325.77 72.2949 1325.72 72.2231C1325.46 71.8713 1325.09 71.7627 1324.77 71.7627C1324.1 71.7627 1323.8 72.1881 1323.8 72.7038V75.2619C1323.8 75.7683 1324.17 76.1385 1324.75 76.1385C1325.28 76.1385 1325.63 75.8217 1325.63 75.2803V74.376H1324.89C1324.82 74.376 1324.78 74.3484 1324.78 74.2766V73.8143C1324.78 73.7443 1324.82 73.7075 1324.89 73.7075H1326.29C1326.36 73.7075 1326.41 73.7443 1326.41 73.8143V75.2895C1326.41 76.1735 1325.74 76.7997 1324.75 76.7997Z" fill="white"/>
<path d="M1336.52 71.8136H1334.34V73.5411H1336.2C1336.27 73.5411 1336.31 73.5761 1336.31 73.6479V74.101C1336.31 74.1636 1336.29 74.2022 1336.2 74.2022H1334.34L1334.35 76.6333C1334.35 76.7051 1334.31 76.7401 1334.25 76.7401H1333.69C1333.63 76.7401 1333.58 76.7051 1333.58 76.6443V71.2629C1333.58 71.1985 1333.62 71.1616 1333.69 71.1616H1336.52C1336.58 71.1616 1336.63 71.1985 1336.63 71.2537V71.7141C1336.63 71.7786 1336.59 71.8136 1336.52 71.8136Z" fill="white"/>
<path d="M1338.2 76.7419H1337.64C1337.57 76.7419 1337.53 76.7051 1337.53 76.6425V71.2611C1337.53 71.2003 1337.56 71.1616 1337.64 71.1616H1338.2C1338.27 71.1616 1338.32 71.2003 1338.32 71.2519V76.6333C1338.32 76.7051 1338.28 76.7419 1338.2 76.7419Z" fill="white"/>
<path d="M1340.21 71.1616C1340.36 71.1616 1340.41 71.2279 1340.46 71.3071L1342.61 75.1949H1342.63V71.2629C1342.63 71.1985 1342.65 71.1616 1342.73 71.1616H1343.24C1343.32 71.1616 1343.35 71.1985 1343.35 71.2519V76.5596C1343.35 76.7143 1343.25 76.7438 1343.18 76.7438H1342.83C1342.69 76.7438 1342.64 76.6977 1342.59 76.6075L1340.45 72.7363H1340.43V76.6333C1340.43 76.7069 1340.41 76.7438 1340.32 76.7438H1339.8C1339.73 76.7438 1339.69 76.7069 1339.69 76.6425V71.39C1339.69 71.2353 1339.71 71.1616 1339.88 71.1616H1340.21Z" fill="white"/>
<path d="M1345.78 73.1064L1345.36 74.8432H1346.76L1346.33 73.1433L1346.07 71.9775H1346.04L1345.78 73.1064ZM1347.34 76.7438C1347.27 76.7438 1347.23 76.7235 1347.22 76.6793L1346.9 75.4675H1345.21L1344.9 76.6793C1344.9 76.7235 1344.85 76.7438 1344.78 76.7438H1344.29C1344.19 76.7438 1344.14 76.7143 1344.17 76.6057L1345.53 71.2721C1345.54 71.2169 1345.57 71.1616 1345.67 71.1616H1346.45C1346.54 71.1616 1346.57 71.1819 1346.59 71.2519L1347.99 76.5891C1348 76.6517 1348.01 76.7438 1347.9 76.7438H1347.34Z" fill="white"/>
<path d="M1349.35 71.1616C1349.5 71.1616 1349.55 71.2279 1349.6 71.3071L1351.75 75.1949H1351.76V71.2629C1351.76 71.1985 1351.79 71.1616 1351.87 71.1616H1352.38C1352.45 71.1616 1352.49 71.1985 1352.49 71.2519V76.5596C1352.49 76.7143 1352.39 76.7438 1352.32 76.7438H1351.97C1351.83 76.7438 1351.77 76.6977 1351.73 76.6075L1349.59 72.7363H1349.56V76.6333C1349.56 76.7069 1349.55 76.7438 1349.46 76.7438H1348.94C1348.87 76.7438 1348.83 76.7069 1348.83 76.6425V71.39C1348.83 71.2353 1348.85 71.1616 1349.02 71.1616H1349.35Z" fill="white"/>
<path d="M1356.86 71.9597L1356.51 72.2507C1356.46 72.2949 1356.36 72.2765 1356.32 72.2157C1356.1 71.9431 1355.71 71.7535 1355.34 71.7535C1354.76 71.7535 1354.43 72.1144 1354.43 72.6301V75.2619C1354.43 75.7665 1354.79 76.1385 1355.38 76.1385C1355.76 76.1385 1356.11 75.9138 1356.32 75.7057C1356.38 75.6321 1356.43 75.5676 1356.53 75.6413L1356.9 75.9396C1356.93 75.9654 1356.94 76.0391 1356.91 76.0833C1356.55 76.5547 1355.98 76.7978 1355.38 76.7978C1354.4 76.7978 1353.66 76.2564 1353.66 75.2711V72.6301C1353.66 71.6798 1354.35 71.0923 1355.33 71.0923C1355.9 71.0923 1356.43 71.2304 1356.88 71.7608C1356.94 71.8345 1356.95 71.8787 1356.86 71.9597Z" fill="white"/>
<path d="M1358.54 76.7419H1357.97C1357.9 76.7419 1357.86 76.7051 1357.86 76.6425V71.2611C1357.86 71.2003 1357.9 71.1616 1357.97 71.1616H1358.54C1358.6 71.1616 1358.65 71.2003 1358.65 71.2519V76.6333C1358.65 76.7051 1358.61 76.7419 1358.54 76.7419Z" fill="white"/>
<path d="M1360.55 71.1616C1360.69 71.1616 1360.74 71.2279 1360.79 71.3071L1362.94 75.1949H1362.96V71.2629C1362.96 71.1985 1362.98 71.1616 1363.06 71.1616H1363.58C1363.65 71.1616 1363.68 71.1985 1363.68 71.2519V76.5596C1363.68 76.7143 1363.58 76.7438 1363.51 76.7438H1363.16C1363.02 76.7438 1362.97 76.6977 1362.92 76.6075L1360.79 72.7363H1360.76V76.6333C1360.76 76.7069 1360.74 76.7438 1360.66 76.7438H1360.13C1360.06 76.7438 1360.02 76.7069 1360.02 76.6425V71.39C1360.02 71.2353 1360.04 71.1616 1360.22 71.1616H1360.55Z" fill="white"/>
<path d="M1366.57 76.7997C1365.59 76.7997 1364.85 76.2564 1364.85 75.2692V72.6301C1364.85 71.6816 1365.61 71.0923 1366.58 71.0923C1367.18 71.0923 1367.83 71.3004 1368.14 71.8253C1368.18 71.9063 1368.16 71.9431 1368.09 72.0058L1367.73 72.2857C1367.67 72.3317 1367.59 72.2949 1367.54 72.2231C1367.28 71.8713 1366.91 71.7627 1366.59 71.7627C1365.92 71.7627 1365.62 72.1881 1365.62 72.7038V75.2619C1365.62 75.7683 1365.99 76.1385 1366.57 76.1385C1367.1 76.1385 1367.45 75.8217 1367.45 75.2803V74.376H1366.71C1366.64 74.376 1366.6 74.3484 1366.6 74.2766V73.8143C1366.6 73.7443 1366.64 73.7075 1366.71 73.7075H1368.12C1368.18 73.7075 1368.24 73.7443 1368.24 73.8143V75.2895C1368.24 76.1735 1367.56 76.7997 1366.57 76.7997Z" fill="white"/>
<path d="M1376.67 73.1064L1376.24 74.8432H1377.64L1377.22 73.1433L1376.95 71.9775H1376.92L1376.67 73.1064ZM1378.23 76.7438C1378.15 76.7438 1378.11 76.7235 1378.1 76.6793L1377.79 75.4675H1376.09L1375.79 76.6793C1375.78 76.7235 1375.73 76.7438 1375.67 76.7438H1375.17C1375.07 76.7438 1375.02 76.7143 1375.05 76.6057L1376.41 71.2721C1376.42 71.2169 1376.46 71.1616 1376.56 71.1616H1377.34C1377.42 71.1616 1377.46 71.1819 1377.48 71.2519L1378.87 76.5891C1378.89 76.6517 1378.9 76.7438 1378.79 76.7438H1378.23Z" fill="white"/>
<path d="M1382.39 72.7086C1382.39 72.0843 1381.99 71.8136 1381.42 71.8136H1380.48V76.0808H1381.48C1382.09 76.0808 1382.39 75.7382 1382.39 75.1783V72.7086ZM1381.47 76.7419H1379.82C1379.76 76.7419 1379.71 76.7051 1379.71 76.6425V71.2629C1379.71 71.1985 1379.75 71.1616 1379.82 71.1616H1381.47C1382.56 71.1616 1383.16 71.7583 1383.16 72.7897V75.0605C1383.16 76.1729 1382.54 76.7419 1381.47 76.7419Z" fill="white"/>
<path d="M1386.27 76.6609C1386.26 76.7235 1386.21 76.7419 1386.14 76.7419H1385.52C1385.44 76.7419 1385.4 76.6977 1385.38 76.6517L1383.86 71.3163C1383.83 71.2353 1383.87 71.1616 1383.98 71.1616H1384.55C1384.63 71.1616 1384.66 71.1911 1384.68 71.2445L1385.48 74.3735L1385.82 75.8193H1385.86L1386.19 74.3735L1386.98 71.2445C1387 71.1985 1387.05 71.1616 1387.11 71.1616H1387.64C1387.81 71.1616 1387.79 71.2703 1387.77 71.3347L1386.27 76.6609Z" fill="white"/>
<path d="M1389.31 76.7419H1388.74C1388.68 76.7419 1388.63 76.7051 1388.63 76.6425V71.2611C1388.63 71.2003 1388.67 71.1616 1388.74 71.1616H1389.31C1389.38 71.1616 1389.42 71.2003 1389.42 71.2519V76.6333C1389.42 76.7051 1389.38 76.7419 1389.31 76.7419Z" fill="white"/>
<path d="M1393.32 75.2085C1393.32 74.6007 1392.76 74.4018 1392.27 74.2305C1391.55 73.9856 1390.61 73.6522 1390.61 72.6319C1390.61 71.6614 1391.34 71.0923 1392.27 71.0923C1392.7 71.0923 1393.29 71.166 1393.81 71.5453C1393.93 71.6264 1393.85 71.6982 1393.82 71.7424L1393.61 72.0868C1393.55 72.1678 1393.45 72.142 1393.38 72.096C1392.96 71.8603 1392.66 71.7608 1392.35 71.7608C1391.82 71.7608 1391.37 71.9781 1391.37 72.6467C1391.37 73.1366 1391.93 73.352 1392.45 73.5436C1393.27 73.8511 1394.08 74.1219 1394.08 75.1974C1394.08 76.1735 1393.28 76.7905 1392.15 76.7905C1391.45 76.7905 1390.8 76.5474 1390.47 76.0925C1390.41 76.0299 1390.41 75.9857 1390.5 75.9138L1390.84 75.6063C1390.92 75.551 1390.96 75.586 1391.05 75.6689C1391.33 75.9654 1391.72 76.1275 1392.14 76.1275C1392.83 76.1275 1393.32 75.8125 1393.32 75.2085Z" fill="white"/>
<path d="M1395.86 76.7419H1395.29C1395.23 76.7419 1395.18 76.7051 1395.18 76.6425V71.2611C1395.18 71.2003 1395.22 71.1616 1395.29 71.1616H1395.86C1395.93 71.1616 1395.97 71.2003 1395.97 71.2519V76.6333C1395.97 76.7051 1395.93 76.7419 1395.86 76.7419Z" fill="white"/>
<path d="M1397.87 71.1616C1398.02 71.1616 1398.06 71.2279 1398.12 71.3071L1400.26 75.1949H1400.28V71.2629C1400.28 71.1985 1400.3 71.1616 1400.38 71.1616H1400.9C1400.97 71.1616 1401.01 71.1985 1401.01 71.2519V76.5596C1401.01 76.7143 1400.91 76.7438 1400.84 76.7438H1400.49C1400.35 76.7438 1400.29 76.6977 1400.25 76.6075L1398.11 72.7363H1398.08V76.6333C1398.08 76.7069 1398.06 76.7438 1397.98 76.7438H1397.46C1397.38 76.7438 1397.35 76.7069 1397.35 76.6425V71.39C1397.35 71.2353 1397.37 71.1616 1397.54 71.1616H1397.87Z" fill="white"/>
<path d="M1403.9 76.7997C1402.92 76.7997 1402.17 76.2564 1402.17 75.2692V72.6301C1402.17 71.6816 1402.94 71.0923 1403.91 71.0923C1404.51 71.0923 1405.16 71.3004 1405.46 71.8253C1405.5 71.9063 1405.49 71.9431 1405.41 72.0058L1405.05 72.2857C1404.99 72.3317 1404.92 72.2949 1404.86 72.2231C1404.61 71.8713 1404.23 71.7627 1403.92 71.7627C1403.25 71.7627 1402.94 72.1881 1402.94 72.7038V75.2619C1402.94 75.7683 1403.31 76.1385 1403.9 76.1385C1404.42 76.1385 1404.77 75.8217 1404.77 75.2803V74.376H1404.04C1403.96 74.376 1403.93 74.3484 1403.93 74.2766V73.8143C1403.93 73.7443 1403.96 73.7075 1404.04 73.7075H1405.44C1405.5 73.7075 1405.56 73.7443 1405.56 73.8143V75.2895C1405.56 76.1735 1404.88 76.7997 1403.9 76.7997Z" fill="white"/>
<path d="M1314.11 22.0652L1313.61 19.6047C1313.59 19.4961 1313.49 19.474 1313.47 19.6047L1312.99 22.0192L1312.35 25.0764C1312.33 25.2256 1312.33 25.2661 1312.5 25.2661H1314.65C1314.77 25.2661 1314.83 25.2256 1314.77 25.058L1314.11 22.0652ZM1318.24 29.5278C1318.28 29.6788 1318.31 29.9771 1317.93 29.9771H1316.26C1316.05 29.9771 1315.91 29.8924 1315.85 29.6954L1315.37 27.559C1315.31 27.3454 1315.26 27.2588 1315.1 27.2588H1312.04C1311.82 27.2588 1311.82 27.3896 1311.75 27.5369C1311.67 27.9642 1311.38 29.2718 1311.28 29.6954C1311.24 29.8924 1311.05 29.9771 1310.88 29.9771H1309.29C1308.9 29.9771 1308.88 29.7838 1308.94 29.5462L1311.96 17.0761C1312.02 16.8845 1312.15 16.7759 1312.39 16.7759H1314.75C1314.94 16.7759 1315.1 16.7759 1315.14 17.0577L1318.24 29.5278Z" fill="white"/>
<path d="M1323.6 27.8131C1324.82 27.8131 1325.33 27.1096 1325.33 25.977V20.7318C1325.33 19.4279 1324.63 18.8938 1323.51 18.8938H1321.92C1321.63 18.8938 1321.57 19.0448 1321.57 19.2548V27.4724C1321.57 27.7266 1321.66 27.8131 1321.9 27.8131H1323.6ZM1319.61 29.9753C1319.36 29.9753 1319.21 29.8482 1319.21 29.6106V17.1442C1319.21 16.903 1319.36 16.7759 1319.61 16.7759H1323.78C1326.38 16.7759 1327.67 18.2732 1327.67 20.7153V25.977C1327.67 28.4559 1326.36 29.9753 1323.84 29.9753H1319.61Z" fill="white"/>
<path d="M1329.73 29.9753C1329.51 29.9753 1329.36 29.8906 1329.36 29.653V17.0982C1329.36 16.8606 1329.51 16.7759 1329.73 16.7759H1331.34C1331.57 16.7759 1331.72 16.8606 1331.72 17.0982V29.6309C1331.72 29.8906 1331.59 29.9753 1331.34 29.9753H1329.73Z" fill="white"/>
<path d="M1341 18.8938H1338.56C1338.31 18.8938 1338.23 19.0025 1338.23 19.1719L1338.21 29.6327C1338.21 29.8906 1338.08 29.9735 1337.83 29.9735H1336.24C1336.01 29.9735 1335.87 29.8906 1335.87 29.653L1335.89 19.1959C1335.89 19.0025 1335.85 18.8938 1335.58 18.8938H1333.27C1333.02 18.8938 1332.92 18.787 1332.92 18.5089V17.1424C1332.92 16.903 1333.02 16.7759 1333.27 16.7759H1341C1341.2 16.7759 1341.31 16.903 1341.31 17.1203V18.5089C1341.31 18.7465 1341.24 18.8938 1341 18.8938Z" fill="white"/>
<path d="M1344.6 17.1184L1346.46 22.3175C1346.54 22.4022 1346.6 22.4022 1346.64 22.3359C1347.26 20.6471 1347.92 18.8533 1348.5 17.1626C1348.63 16.8827 1348.73 16.7759 1349.14 16.7759H1350.67C1351.11 16.7759 1351.11 17.0135 1351.02 17.2032L1347.84 24.8167C1347.74 25.0543 1347.72 25.1611 1347.72 25.3766V29.5904C1347.72 29.8464 1347.57 29.9753 1347.34 29.9753H1345.75C1345.51 29.9753 1345.38 29.8464 1345.38 29.6088V25.3324C1345.38 25.1814 1345.36 25.034 1345.28 24.8628L1342.07 17.2253C1341.99 17.0135 1341.97 16.7759 1342.36 16.7759H1344C1344.31 16.7759 1344.47 16.8201 1344.6 17.1184Z" fill="white"/>
<path d="M1354.68 22.0652L1354.18 19.6047C1354.16 19.4961 1354.06 19.474 1354.04 19.6047L1353.56 22.0192L1352.92 25.0764C1352.9 25.2256 1352.9 25.2661 1353.07 25.2661H1355.22C1355.34 25.2661 1355.4 25.2256 1355.34 25.058L1354.68 22.0652ZM1358.81 29.5278C1358.86 29.6788 1358.88 29.9771 1358.5 29.9771H1356.83C1356.62 29.9771 1356.48 29.8924 1356.42 29.6954L1355.94 27.559C1355.88 27.3454 1355.84 27.2588 1355.67 27.2588H1352.61C1352.39 27.2588 1352.39 27.3896 1352.32 27.5369C1352.24 27.9642 1351.95 29.2718 1351.85 29.6954C1351.81 29.8924 1351.62 29.9771 1351.45 29.9771H1349.86C1349.47 29.9771 1349.45 29.7838 1349.51 29.5462L1352.53 17.0761C1352.59 16.8845 1352.72 16.7759 1352.97 16.7759H1355.32C1355.51 16.7759 1355.67 16.7759 1355.71 17.0577L1358.81 29.5278Z" fill="white"/>
<path d="M1368.65 27.8131C1369.64 27.8131 1370.22 26.9991 1370.22 25.9954C1370.22 25.034 1369.77 24.0285 1368.47 24.0285H1366.56C1366.32 24.0285 1366.26 24.1353 1366.26 24.3471V27.535C1366.26 27.7505 1366.32 27.8131 1366.56 27.8131H1368.65ZM1368.4 21.9529C1369.33 21.9529 1369.85 21.2457 1369.85 20.3709C1369.85 19.4519 1369.29 18.8938 1368.36 18.8938H1366.5C1366.32 18.8938 1366.26 19.0025 1366.26 19.1719V21.6103C1366.26 21.8479 1366.34 21.9529 1366.52 21.9529H1368.4ZM1370.8 22.8295C1370.76 22.8737 1370.76 22.9363 1370.82 22.9603C1372.06 23.5146 1372.62 24.7744 1372.62 25.9512C1372.62 28.3454 1371.15 29.9753 1368.69 29.9753H1364.29C1364.04 29.9753 1363.92 29.8482 1363.92 29.6106V17.1442C1363.92 16.903 1364.04 16.7759 1364.29 16.7759H1368.47C1370.76 16.7759 1372.21 17.9951 1372.21 20.264C1372.21 21.1609 1371.61 22.2954 1370.8 22.8295Z" fill="white"/>
<path d="M1374.25 29.9753C1374.02 29.9753 1373.88 29.8906 1373.88 29.653V17.0982C1373.88 16.8606 1374.02 16.7759 1374.25 16.7759H1375.86C1376.09 16.7759 1376.24 16.8606 1376.24 17.0982V29.6309C1376.24 29.8906 1376.11 29.9753 1375.86 29.9753H1374.25Z" fill="white"/>
<path d="M1382.77 22.7651C1382.89 22.7651 1383.1 22.7006 1383.18 22.638C1383.84 22.1021 1384.15 21.2678 1384.15 20.7318C1384.15 19.6839 1383.59 18.8938 1382.39 18.8938H1380.8C1380.56 18.8938 1380.49 18.9804 1380.49 19.2161V22.4667C1380.49 22.6582 1380.54 22.7651 1380.78 22.7651H1382.77ZM1382.58 16.7759C1385.06 16.7759 1386.53 18.1885 1386.53 20.6029C1386.53 22.1021 1385.66 23.4281 1384.71 24.3287C1384.6 24.4557 1384.6 24.5184 1384.67 24.6491C1384.69 24.6915 1385.72 27.0231 1386.86 29.502C1387 29.7819 1386.84 29.9735 1386.57 29.9735H1385C1384.44 29.9735 1384.33 29.7819 1384.21 29.502L1382.31 25.0746C1382.29 24.9696 1382.21 24.883 1382.04 24.883H1380.68C1380.56 24.883 1380.49 24.9475 1380.49 25.1188V29.6327C1380.49 29.8887 1380.35 29.9735 1380.1 29.9735H1378.53C1378.3 29.9735 1378.16 29.8887 1378.16 29.6512V17.1442C1378.16 16.903 1378.24 16.7759 1378.49 16.7759H1382.58Z" fill="white"/>
<path d="M1395.19 27.8131C1395.37 27.8131 1395.52 27.9236 1395.52 28.1778V29.5904C1395.52 29.8482 1395.41 29.9753 1395.21 29.9753H1388.26C1388.02 29.9753 1387.89 29.8482 1387.89 29.6106V17.1C1387.89 16.8606 1388.02 16.7759 1388.24 16.7759H1389.85C1390.08 16.7759 1390.22 16.8422 1390.22 17.0724V27.4945C1390.22 27.7063 1390.22 27.8131 1390.49 27.8131H1395.19Z" fill="white"/>
<path d="M1401.43 22.0652L1400.93 19.6047C1400.91 19.4961 1400.81 19.474 1400.79 19.6047L1400.31 22.0192L1399.67 25.0764C1399.65 25.2256 1399.65 25.2661 1399.82 25.2661H1401.97C1402.09 25.2661 1402.15 25.2256 1402.09 25.058L1401.43 22.0652ZM1405.56 29.5278C1405.6 29.6788 1405.63 29.9771 1405.25 29.9771H1403.58C1403.37 29.9771 1403.23 29.8924 1403.17 29.6954L1402.69 27.559C1402.63 27.3454 1402.59 27.2588 1402.42 27.2588H1399.36C1399.14 27.2588 1399.14 27.3896 1399.07 27.5369C1398.99 27.9642 1398.7 29.2718 1398.6 29.6954C1398.56 29.8924 1398.37 29.9771 1398.21 29.9771H1396.62C1396.22 29.9771 1396.2 29.7838 1396.26 29.5462L1399.28 17.0761C1399.34 16.8845 1399.46 16.7759 1399.71 16.7759H1402.07C1402.26 16.7759 1402.42 16.7759 1402.46 17.0577L1405.56 29.5278Z" fill="white"/>
<path d="M1308.92 47.407V39.0642C1308.92 35.8394 1311.49 33.7012 1315.01 33.7012C1317.18 33.7012 1319.25 34.2739 1320.83 36.4435C1321.01 36.6847 1321.05 36.9868 1320.67 37.2225L1318.97 38.4619C1318.63 38.6424 1318.28 38.4914 1318.12 38.2207C1317.43 37.2538 1316.37 36.7142 1315.14 36.7142C1313.38 36.7142 1312.47 37.8579 1312.47 39.1839V47.407C1312.47 48.6704 1313.41 49.7276 1315.17 49.7276C1316.33 49.7276 1317.4 49.094 1318.09 48.3095C1318.31 48.0995 1318.5 47.7662 1318.91 48.0111L1320.8 49.1235C1321.08 49.2745 1321.2 49.5766 1321.05 49.8473C1319.6 51.9542 1317.47 52.7701 1315.11 52.7701C1311.43 52.7701 1308.92 50.6889 1308.92 47.407Z" fill="white"/>
<path d="M1330.88 41.4464L1330.13 37.9803C1330.1 37.8348 1329.94 37.8054 1329.91 37.9803L1329.19 41.3893L1328.21 45.6934C1328.18 45.9033 1328.18 45.9659 1328.43 45.9659H1331.7C1331.89 45.9659 1331.98 45.9033 1331.89 45.6657L1330.88 41.4464ZM1337.17 51.957C1337.23 52.1706 1337.26 52.5923 1336.7 52.5923H1334.15C1333.84 52.5923 1333.62 52.4726 1333.52 52.1982L1332.8 49.1907C1332.7 48.8887 1332.64 48.769 1332.39 48.769H1327.74C1327.39 48.769 1327.39 48.9476 1327.3 49.1594C1327.18 49.7617 1326.74 51.5997 1326.58 52.1982C1326.52 52.4726 1326.23 52.5923 1325.98 52.5923H1323.56C1322.96 52.5923 1322.93 52.3216 1323.03 51.9883L1327.62 34.4296C1327.71 34.1588 1327.9 34.0078 1328.28 34.0078H1331.86C1332.14 34.0078 1332.39 34.0078 1332.46 34.3983L1337.17 51.957Z" fill="white"/>
<path d="M1346.69 36.9829H1344.24C1343.89 36.9829 1343.8 37.1616 1343.8 37.4323V41.5577C1343.8 41.8892 1343.93 42.0126 1344.24 42.0126H1346.69C1348.2 42.0126 1349.21 40.9849 1349.21 39.5079C1349.21 38.2169 1348.32 36.9829 1346.69 36.9829ZM1346.72 44.9906H1344.21C1343.89 44.9906 1343.83 45.1416 1343.83 45.3553V52.1014C1343.83 52.4348 1343.64 52.5839 1343.27 52.5839H1340.85C1340.47 52.5839 1340.25 52.4348 1340.25 52.1014V34.4525C1340.25 34.1191 1340.47 33.9976 1340.85 33.9976H1346.69C1350.43 33.9976 1352.76 36.3199 1352.76 39.5705C1352.76 42.6719 1350.21 44.9906 1346.72 44.9906Z" fill="white"/>
<path d="M1356.97 52.5839C1356.62 52.5839 1356.4 52.4642 1356.4 52.1327V34.4525C1356.4 34.1191 1356.62 33.9976 1356.97 33.9976H1359.42C1359.76 33.9976 1359.98 34.1191 1359.98 34.4525V52.1014C1359.98 52.4642 1359.8 52.5839 1359.42 52.5839H1356.97Z" fill="white"/>
<path d="M1375.73 36.9829H1372.02C1371.65 36.9829 1371.52 37.1303 1371.52 37.3715L1371.49 52.1014C1371.49 52.4661 1371.3 52.5839 1370.92 52.5839H1368.5C1368.16 52.5839 1367.94 52.4661 1367.94 52.1327L1367.97 37.4047C1367.97 37.1303 1367.9 36.9829 1367.49 36.9829H1363.98C1363.6 36.9829 1363.44 36.8301 1363.44 36.4396V34.5077C1363.44 34.1817 1363.6 33.9976 1363.98 33.9976H1375.73C1376.04 33.9976 1376.2 34.1817 1376.2 34.4838V36.4396C1376.2 36.7711 1376.11 36.9829 1375.73 36.9829Z" fill="white"/>
<path d="M1384.5 41.4464L1383.74 37.9803C1383.71 37.8348 1383.55 37.8054 1383.52 37.9803L1382.8 41.3893L1381.83 45.6934C1381.79 45.9033 1381.79 45.9659 1382.05 45.9659H1385.31C1385.5 45.9659 1385.6 45.9033 1385.5 45.6657L1384.5 41.4464ZM1390.78 51.957C1390.85 52.1706 1390.88 52.5923 1390.31 52.5923H1387.77C1387.45 52.5923 1387.23 52.4726 1387.14 52.1982L1386.41 49.1907C1386.32 48.8887 1386.26 48.769 1386 48.769H1381.36C1381.01 48.769 1381.01 48.9476 1380.92 49.1594C1380.79 49.7617 1380.35 51.5997 1380.19 52.1982C1380.13 52.4726 1379.85 52.5923 1379.6 52.5923H1377.18C1376.58 52.5923 1376.54 52.3216 1376.64 51.9883L1381.23 34.4296C1381.32 34.1588 1381.51 34.0078 1381.89 34.0078H1385.47C1385.75 34.0078 1386 34.0078 1386.07 34.3983L1390.78 51.957Z" fill="white"/>
<path d="M1405.08 49.5499C1405.37 49.5499 1405.59 49.699 1405.59 50.0637V52.0472C1405.59 52.41 1405.42 52.5923 1405.11 52.5923H1394.55C1394.18 52.5923 1393.99 52.41 1393.99 52.0785V34.4609C1393.99 34.1275 1394.18 34.0078 1394.52 34.0078H1396.98C1397.32 34.0078 1397.54 34.0962 1397.54 34.4277V49.0986C1397.54 49.3988 1397.54 49.5499 1397.95 49.5499H1405.08Z" fill="white"/>
<path d="M1302.66 16.7856H1245.13V52.5918H1302.66V16.7856Z" fill="white"/>
<path d="M1302.61 16.8154H1245.12V52.5903H1302.61V16.8154Z" fill="white"/>
<path d="M1295.34 17.4585L1286.03 32.4038L1294.36 42.6326L1301.95 39.1831V17.4585H1295.34Z" fill="#AF1E23"/>
<path d="M1294.36 42.6306L1301.95 51.9478V39.1812L1294.36 42.6306Z" fill="#F36F31"/>
<path d="M1273.86 17.4585L1286.03 32.4038L1295.34 17.4585H1273.86Z" fill="#F36F31"/>
<path d="M1282.69 37.7668L1286.03 32.402L1273.86 17.4585V35.3561C1273.89 35.3561 1273.92 35.3542 1273.95 35.3542C1277.15 35.3542 1280.14 36.2364 1282.69 37.7668Z" fill="#FFD65C"/>
<path d="M1273.95 35.353C1273.92 35.353 1273.89 35.3549 1273.86 35.3549V51.9485L1282.69 37.7656C1280.14 36.2352 1277.15 35.353 1273.95 35.353Z" fill="#AF1E23"/>
<path d="M1289.22 44.9693L1294.36 42.634L1286.03 32.4053L1282.69 37.7701C1285.53 39.4719 1287.81 41.9802 1289.22 44.9693Z" fill="#F36F31"/>
<path d="M1282.69 37.7666L1273.86 51.9495L1289.22 44.9676C1287.81 41.9767 1285.53 39.4702 1282.69 37.7666Z" fill="#D71D24"/>
<path d="M1294.36 42.6333L1289.22 44.9686C1290.22 47.092 1290.78 49.4568 1290.78 51.9523H1301.95L1294.36 42.6333Z" fill="#FFD65C"/>
<path d="M1273.86 51.9496H1290.78C1290.78 49.456 1290.22 47.0894 1289.22 44.9678L1273.86 51.9496Z" fill="#AF1E23"/>
<path d="M1245.78 17.4585V39.1831L1253.37 42.6326L1261.7 32.4038L1252.39 17.4585H1245.78Z" fill="#AF1E23"/>
<path d="M1245.78 51.9478L1253.37 42.6306L1245.78 39.1812V51.9478Z" fill="#F36F31"/>
<path d="M1252.39 17.4585L1261.7 32.4038L1273.86 17.4585H1252.39Z" fill="#F36F31"/>
<path d="M1265.03 37.7668L1261.7 32.402L1273.86 17.4585V35.3561C1273.84 35.3561 1273.81 35.3542 1273.78 35.3542C1270.58 35.3542 1267.58 36.2364 1265.03 37.7668Z" fill="#D71D24"/>
<path d="M1273.78 35.353C1273.81 35.353 1273.84 35.3549 1273.86 35.3549V51.9485L1265.03 37.7656C1267.58 36.2352 1270.58 35.353 1273.78 35.353Z" fill="#F36F31"/>
<path d="M1258.51 44.9693L1253.37 42.634L1261.7 32.4053L1265.04 37.7701C1262.2 39.4719 1259.92 41.9802 1258.51 44.9693Z" fill="#F36F31"/>
<path d="M1265.03 37.7666L1273.86 51.9495L1258.51 44.9676C1259.92 41.9767 1262.2 39.4702 1265.03 37.7666Z" fill="#D71D24"/>
<path d="M1253.37 42.6333L1258.51 44.9686C1257.51 47.092 1256.95 49.4568 1256.95 51.9523H1245.78L1253.37 42.6333Z" fill="#FFD65C"/>
<path d="M1273.86 51.9496H1256.95C1256.95 49.456 1257.51 47.0894 1258.51 44.9678L1273.86 51.9496Z" fill="#AF1E23"/>
<path fill-rule="evenodd" clip-rule="evenodd" d="M1245.53 83.1947H1284.72C1284.92 83.1947 1285.09 83.0308 1285.09 82.8263C1285.09 82.6238 1284.92 82.458 1284.72 82.458H1245.53C1245.33 82.458 1245.17 82.6238 1245.17 82.8263C1245.17 83.0308 1245.33 83.1947 1245.53 83.1947Z" fill="white"/>
<path d="M32.3212 40.3215V38.4477C32.3212 38.1569 32.1613 38.0277 31.9054 38.0277H24.1021V21.26C24.1021 21.0015 23.9742 20.8723 23.6544 20.8723H21.4477C21.0959 20.8723 21 21.0015 21 21.2923V40.3538C21 40.6446 21.1599 40.8062 21.4797 40.8062H31.9054C32.1932 40.8062 32.3212 40.6446 32.3212 40.3215Z" fill="white"/>
<path d="M38.2208 22.3908C38.2208 21.3892 37.3574 20.5815 36.334 20.5815C35.3426 20.5815 34.5111 21.3892 34.5111 22.3908C34.5111 23.4246 35.3426 24.2 36.366 24.2C37.3574 24.2 38.2208 23.36 38.2208 22.3908ZM37.8371 40.4185V26.9785C37.8371 26.6877 37.6772 26.5585 37.4213 26.5585H35.1827C34.9268 26.5585 34.7989 26.6877 34.7989 26.9785V40.4185C34.7989 40.6769 34.9588 40.8062 35.2147 40.8062H37.4533C37.901 40.8062 37.8371 40.4185 37.8371 40.4185Z" fill="white"/>
<path d="M49.1547 20.9692C49.2507 20.5169 48.9948 20.42 48.675 20.2908C48.1953 20.1292 47.2999 20 46.3724 20C43.718 20 42.2469 21.9062 42.2469 24.2V26.5585H40.6479C40.3601 26.5585 40.2321 26.6877 40.2321 26.9462V28.6585C40.2321 28.9492 40.3601 29.0785 40.6159 29.0785H42.2469V40.4185C42.2469 40.6123 42.3429 40.8062 42.6307 40.8062H44.8054C45.0612 40.8062 45.2211 40.6769 45.2211 40.4185V29.0785H48.1314C48.3872 29.0785 48.5151 28.9492 48.5151 28.6585V26.9462C48.5151 26.6877 48.3872 26.5585 48.0994 26.5585H45.2211V24.5877C45.2211 23.5538 45.6369 22.7785 46.7882 22.7785C47.1719 22.7785 47.7796 22.8754 48.0994 22.9723C48.5471 23.1015 48.771 23.0046 48.8349 22.6815L49.1547 20.9692Z" fill="white"/>
<path d="M62.1067 33.4723V31.9538C62.1067 28.5938 59.8041 26.3323 56.3182 26.3323C52.8962 26.3323 50.4977 28.6262 50.4977 31.9538V35.6046C50.4977 38.8677 52.7363 41 56.2542 41C58.4289 41 60.3797 40.2246 61.499 38.3185C61.7549 37.8662 61.4671 37.6723 61.2432 37.5431L59.932 36.6385C59.7081 36.4769 59.4843 36.4446 59.2284 36.7677C58.6208 37.5108 57.5974 38.3508 56.3182 38.3508C54.3673 38.3508 53.5359 37.0262 53.5359 35.4754V34.3446H61.3391C61.7229 34.3446 62.1067 33.9892 62.1067 33.4723ZM56.3182 28.9492C58.1091 28.9492 59.0685 30.1123 59.0685 31.5662V32.1154H53.5678V31.5985C53.5678 29.9185 54.7191 28.9492 56.3182 28.9492Z" fill="white"/>
<path d="M76.2032 40.3538V21.2923C76.2032 21.0015 75.9793 20.8723 75.7235 20.8723H73.4848C73.165 20.8723 73.0051 21.0338 73.0051 21.3246V40.3862C73.0051 40.6769 73.197 40.8062 73.4848 40.8062H75.7235C76.0433 40.8062 76.2032 40.6769 76.2032 40.3538Z" fill="white"/>
<path d="M91.9704 40.4185V31.8246C91.9704 28.6262 90.2434 26.3969 87.0134 26.3969C85.8621 26.3969 84.359 26.7846 83.3996 27.6892C83.3676 27.6892 83.3356 27.6569 83.3036 27.6569V26.9462C83.3036 26.6554 83.2077 26.5585 82.9518 26.5585H80.7452C80.4893 26.5585 80.3614 26.72 80.3614 26.9785V40.4185C80.3614 40.6769 80.5213 40.8062 80.7771 40.8062H82.9838C83.2716 40.8062 83.3996 40.6769 83.3996 40.4185V31.8246C83.3996 30.2415 84.5829 29.0462 86.1819 29.0462C88.1007 29.0462 88.9322 30.2415 88.9322 31.8569V40.4185C88.9322 40.6769 89.0601 40.8062 89.348 40.8062H91.5866C91.8425 40.8062 91.9704 40.6769 91.9704 40.4185Z" fill="white"/>
<path d="M105.393 36.8C105.393 33.6338 102.291 32.8908 99.7962 32.0185C98.6768 31.6308 98.0692 31.1138 98.0692 30.3708C98.0692 29.3692 99.1885 28.9492 100.18 28.9492C101.107 28.9492 102.387 29.4985 103.218 30.1446C103.378 30.2738 103.506 30.3062 103.602 30.3062C103.698 30.3062 103.794 30.2415 103.89 30.1446L104.945 28.7554C105.137 28.5615 105.105 28.3354 104.945 28.1738C103.634 26.8492 101.779 26.3646 100.116 26.3646C97.4935 26.3969 95.127 27.7862 95.127 30.5323C95.127 32.7292 96.726 33.7954 98.6449 34.4738L100.692 35.1846C101.779 35.6046 102.419 35.9923 102.419 36.8969C102.419 37.8985 101.491 38.48 100.308 38.48C98.9966 38.48 97.9093 37.8338 97.1737 36.7354C96.9819 36.4769 96.8859 36.38 96.5661 36.5415L94.9031 37.3815C94.7752 37.4462 94.7112 37.5754 94.7112 37.6723C94.7112 37.7692 94.7432 37.8338 94.7752 37.9308C95.7666 40.0954 97.9093 40.9677 100.148 40.9677C103.282 40.9677 105.393 39.2877 105.393 36.8Z" fill="white"/>
<path d="M108.058 26.9785V35.5723C108.058 38.7708 109.753 40.9677 113.015 40.9677C114.166 40.9677 115.702 40.6123 116.661 39.7077C116.661 39.7077 116.693 39.74 116.725 39.74V40.4508C116.725 40.7092 116.821 40.8062 117.077 40.8062H119.283C119.539 40.8062 119.667 40.6769 119.667 40.4185V26.9462C119.667 26.72 119.507 26.5585 119.251 26.5585H117.045C116.789 26.5585 116.629 26.72 116.629 26.9785V35.54C116.629 37.1554 115.446 38.3508 113.879 38.3508C111.928 38.3508 111.096 37.1231 111.096 35.54V26.9462C111.096 26.72 110.968 26.5585 110.681 26.5585H108.442C108.218 26.5585 108.058 26.72 108.058 26.9785Z" fill="white"/>
<path d="M123.659 26.5908C123.403 26.5908 123.275 26.72 123.275 26.9785V40.4185C123.275 40.6769 123.435 40.8062 123.691 40.8062H125.93C126.185 40.8062 126.313 40.6769 126.313 40.4185V32.9554C126.313 30.92 127.081 29.4338 129.32 29.4338C129.671 29.4338 130.119 29.5631 130.503 29.5631C130.663 29.5631 130.791 29.4662 130.855 29.1431L131.302 27.0754C131.334 26.9785 131.334 26.9138 131.334 26.8169C131.334 26.4615 130.695 26.3323 129.959 26.3323C128.328 26.3323 126.857 27.2692 126.122 28.4969H126.026V26.9462C126.026 26.6877 125.866 26.5908 125.578 26.5908H123.659Z" fill="white"/>
<path d="M138.612 26.3C136.981 26.3 135.254 26.6877 134.039 27.2692C133.847 27.3338 133.783 27.56 133.847 27.7862L134.391 29.3692C134.487 29.6277 134.647 29.6923 134.966 29.5631C135.862 29.1431 137.333 28.8523 138.196 28.8523C140.179 28.8523 140.883 29.66 140.883 31.1138V31.8569H140.787C140.051 31.2754 138.772 31.0492 137.845 31.0492C134.455 31.0492 132.632 33.2462 132.632 36.0569C132.632 38.9969 134.391 41 137.589 41C138.9 41 140.083 40.6769 141.043 39.7077L141.139 39.74V40.4831C141.139 40.6769 141.235 40.8062 141.458 40.8062H143.601C143.825 40.8062 143.953 40.7092 143.953 40.4185V31.6631C143.953 28.3677 142.642 26.3 138.612 26.3ZM135.446 35.96C135.446 34.4738 136.47 33.3754 138.069 33.3754C139.859 33.3754 140.691 34.5062 140.691 35.96C140.691 37.4462 139.668 38.5446 138.069 38.5446C136.182 38.5446 135.446 37.4138 135.446 35.96Z" fill="white"/>
<path d="M159.055 40.4185V31.8246C159.055 28.6262 157.328 26.3969 154.098 26.3969C152.947 26.3969 151.443 26.7846 150.484 27.6892C150.452 27.6892 150.42 27.6569 150.388 27.6569V26.9462C150.388 26.6554 150.292 26.5585 150.036 26.5585H147.83C147.574 26.5585 147.446 26.72 147.446 26.9785V40.4185C147.446 40.6769 147.606 40.8062 147.862 40.8062H150.068C150.356 40.8062 150.484 40.6769 150.484 40.4185V31.8246C150.484 30.2415 151.667 29.0462 153.266 29.0462C155.185 29.0462 156.017 30.2415 156.017 31.8569V40.4185C156.017 40.6769 156.145 40.8062 156.432 40.8062H158.671C158.927 40.8062 159.055 40.6769 159.055 40.4185Z" fill="white"/>
<path d="M173.181 38.2215C173.373 37.9631 173.309 37.7369 172.893 37.4462L171.582 36.5738C171.198 36.3154 171.038 36.38 170.782 36.7031C170.335 37.3169 169.535 38.3185 167.968 38.3185C166.401 38.3185 165.186 37.1877 165.186 35.6369V31.7277C165.186 30.1446 166.401 28.9815 168 28.9815C168.736 28.9815 169.983 29.5308 170.622 30.5323C170.814 30.8554 171.038 31.1462 171.486 30.8231L172.925 29.7892C173.213 29.5954 173.213 29.2077 173.085 29.0138C171.87 27.2369 170.079 26.3323 168.064 26.3323C164.706 26.3323 162.148 28.4646 162.148 31.8892V35.5723C162.148 38.9 164.482 41 168 41C170.175 41 171.902 40.1277 173.181 38.2215Z" fill="white"/>
<path d="M187 33.4723V31.9538C187 28.5938 184.697 26.3323 181.211 26.3323C177.79 26.3323 175.391 28.6262 175.391 31.9538V35.6046C175.391 38.8677 177.63 41 181.148 41C183.322 41 185.273 40.2246 186.392 38.3185C186.648 37.8662 186.36 37.6723 186.137 37.5431L184.825 36.6385C184.601 36.4769 184.378 36.4446 184.122 36.7677C183.514 37.5108 182.491 38.3508 181.211 38.3508C179.261 38.3508 178.429 37.0262 178.429 35.4754V34.3446H186.232C186.616 34.3446 187 33.9892 187 33.4723ZM181.211 28.9492C183.002 28.9492 183.962 30.1123 183.962 31.5662V32.1154H178.461V31.5985C178.461 29.9185 179.612 28.9492 181.211 28.9492Z" fill="white"/>
<path d="M28.3831 77.0339C28.6492 77.0339 28.6935 76.7942 28.627 76.6199L25.2786 63.8499C25.2121 63.632 25.1012 63.5884 24.8795 63.5884H22.6842C22.4403 63.5884 22.3294 63.7191 22.2851 63.8717L19.0254 76.6634C18.9367 76.9031 19.0919 77.0339 19.3137 77.0339H20.8437C20.9989 77.0339 21.132 76.9903 21.1541 76.8378C21.3537 75.9661 21.7529 74.3535 21.8194 74.1356H25.7443C25.9439 75.0291 26.1878 75.9225 26.4096 76.8378C26.4317 76.9685 26.5426 77.0339 26.7422 77.0339H28.3831ZM23.7264 65.9419H23.7929L24.4138 68.6659L25.3008 72.3487H22.2629L23.1499 68.6005C23.3273 67.707 23.549 66.8354 23.7264 65.9419Z" fill="white"/>
<path d="M38.0457 76.7724V63.414C38.0457 63.2615 37.957 63.1525 37.7575 63.1525H36.2274C36.05 63.1525 35.9391 63.2397 35.9391 63.4358V67.8378C35.917 67.8596 35.8948 67.8378 35.8726 67.8596C35.3848 67.5109 34.6973 67.293 33.7217 67.293C31.3046 67.293 29.9963 68.9492 29.9963 70.9976V73.5254C29.9963 75.7918 31.3268 77.1429 33.5221 77.1429C34.4312 77.1429 35.4513 76.9249 36.0056 76.3148C36.0278 76.3148 36.0722 76.3366 36.0943 76.3366V76.7942C36.0943 76.9685 36.2052 77.0339 36.3604 77.0339H37.8018C38.0014 77.0339 38.0457 76.9467 38.0457 76.7724ZM35.9391 73.4818C35.9391 74.5278 35.1187 75.3777 33.9656 75.3777C32.6351 75.3777 32.1029 74.4625 32.1029 73.3293V70.9976C32.1029 69.9298 32.6573 69.0799 34.0321 69.0799C35.4069 69.0799 35.9613 70.0605 35.9613 71.1501C35.9613 71.9346 35.9391 72.6973 35.9391 73.4818Z" fill="white"/>
<path d="M42.8795 64.6126C42.8795 63.937 42.2807 63.3923 41.5712 63.3923C40.8837 63.3923 40.3072 63.937 40.3072 64.6126C40.3072 65.3099 40.8837 65.8329 41.5933 65.8329C42.2807 65.8329 42.8795 65.2663 42.8795 64.6126ZM42.6134 76.7724V67.707C42.6134 67.5109 42.5025 67.4237 42.3251 67.4237H40.7729C40.5955 67.4237 40.5068 67.5109 40.5068 67.707V76.7724C40.5068 76.9467 40.6176 77.0339 40.795 77.0339H42.3473C42.6577 77.0339 42.6134 76.7724 42.6134 76.7724Z" fill="white"/>
<path d="M50.7047 76.4673L50.5051 75.4213C50.4608 75.1816 50.3721 75.0508 49.9508 75.138C49.6625 75.1816 49.0416 75.2688 48.7977 75.2688C47.9994 75.2688 47.7555 74.8111 47.7555 74.0484V69.1235H49.9286C50.1282 69.1235 50.2169 69.0363 50.2169 68.862V67.6852C50.2169 67.5109 50.106 67.4237 49.9286 67.4237H47.7555V64.9831C47.7555 64.8305 47.6668 64.678 47.4007 64.7433L45.9593 65.0702C45.7597 65.1138 45.6932 65.2663 45.6932 65.3971V67.4237H44.5401C44.3849 67.4237 44.274 67.5109 44.274 67.707V68.862C44.274 69.0363 44.3849 69.1235 44.5845 69.1235H45.6932V74.4407C45.6932 75.9879 46.3363 77.1646 48.4651 77.1646C49.0859 77.1646 49.9064 77.0993 50.3943 76.9249C50.616 76.8378 50.7491 76.7724 50.7047 76.4673Z" fill="white"/>
<path d="M53.5082 67.7724C53.4417 67.5763 53.3308 67.4237 53.0204 67.4237H51.5347C51.3129 67.4237 51.2242 67.5327 51.2242 67.707C51.2242 67.7506 51.2242 67.7942 51.2464 67.8378L53.7522 76.5981C53.8409 76.9031 53.9961 77.0339 54.2844 77.0339H54.7722L53.6635 80.4334C53.5304 80.7385 53.6635 81 53.9961 81H55.127C55.5261 81 55.7257 80.7603 55.7922 80.5424L60.0054 67.8814C60.0276 67.816 60.0276 67.7724 60.0276 67.7288C60.0276 67.5545 59.9167 67.4237 59.695 67.4237H58.3867C58.0097 67.4237 57.8988 67.6416 57.8323 67.8378L55.4374 75.2034H55.3931L54.5726 71.9346C54.2178 70.54 53.8852 69.1671 53.5082 67.7724Z" fill="white"/>
<path d="M65.4107 67.2494C64.2798 67.2494 63.0823 67.5109 62.2397 67.9031C62.1067 67.9467 62.0623 68.0993 62.1067 68.2518L62.4836 69.3196C62.5501 69.4939 62.661 69.5375 62.8828 69.4504C63.5037 69.1671 64.5237 68.9709 65.1224 68.9709C66.4972 68.9709 66.9851 69.5157 66.9851 70.4964V70.9976H66.9186C66.4085 70.6053 65.5216 70.4528 64.8785 70.4528C62.528 70.4528 61.264 71.9346 61.264 73.8305C61.264 75.8136 62.4836 77.1646 64.7011 77.1646C65.6103 77.1646 66.4307 76.9467 67.096 76.293L67.1625 76.3148V76.816C67.1625 76.9467 67.229 77.0339 67.3842 77.0339H68.8699C69.0252 77.0339 69.1139 76.9685 69.1139 76.7724V70.8668C69.1139 68.6441 68.2047 67.2494 65.4107 67.2494ZM63.2154 73.7651C63.2154 72.7627 63.925 72.0218 65.0337 72.0218C66.2755 72.0218 66.852 72.7845 66.852 73.7651C66.852 74.7676 66.1424 75.5085 65.0337 75.5085C63.7254 75.5085 63.2154 74.7458 63.2154 73.7651Z" fill="white"/>
<path d="M85.5621 73.0024C85.5621 71.7603 85.0521 70.3656 83.5886 69.8426V69.7554C84.5421 69.276 85.1408 68.0557 85.1408 67.1186C85.1408 64.8305 83.6107 63.5884 81.1937 63.5884H76.9583C76.7144 63.5884 76.6479 63.6973 76.6479 63.8935V76.7288C76.6479 76.9249 76.7588 77.0339 76.9805 77.0339H81.4598C84.0099 77.0339 85.5621 75.3777 85.5621 73.0024ZM83.3668 73.046C83.3668 74.3535 82.5685 75.1598 81.2602 75.1598H78.821V70.8232H81.0606C82.7681 70.8232 83.3668 71.8475 83.3668 73.046ZM82.9677 67.1622C82.9677 68.1429 82.3468 68.9709 81.1493 68.9709H78.821V65.4625H80.9941C82.1916 65.4625 82.9677 66.0291 82.9677 67.1622Z" fill="white"/>
<path d="M90.0656 64.6126C90.0656 63.937 89.4669 63.3923 88.7573 63.3923C88.0699 63.3923 87.4934 63.937 87.4934 64.6126C87.4934 65.3099 88.0699 65.8329 88.7795 65.8329C89.4669 65.8329 90.0656 65.2663 90.0656 64.6126ZM89.7996 76.7724V67.707C89.7996 67.5109 89.6887 67.4237 89.5113 67.4237H87.9591C87.7817 67.4237 87.693 67.5109 87.693 67.707V76.7724C87.693 76.9467 87.8038 77.0339 87.9812 77.0339H89.5335C89.8439 77.0339 89.7996 76.7724 89.7996 76.7724Z" fill="white"/>
<path d="M92.6355 67.4455C92.4581 67.4455 92.3694 67.5327 92.3694 67.707V76.7724C92.3694 76.9467 92.4803 77.0339 92.6577 77.0339H94.2099C94.3873 77.0339 94.476 76.9467 94.476 76.7724V71.7385C94.476 70.3656 95.0082 69.3632 96.5604 69.3632C96.8043 69.3632 97.1148 69.4504 97.3809 69.4504C97.4917 69.4504 97.5804 69.385 97.6248 69.1671L97.9352 67.7724C97.9574 67.707 97.9574 67.6634 97.9574 67.5981C97.9574 67.3584 97.5139 67.2712 97.0039 67.2712C95.873 67.2712 94.853 67.9031 94.3429 68.7312H94.2764V67.6852C94.2764 67.5109 94.1655 67.4455 93.966 67.4455H92.6355Z" fill="white"/>
<path d="M99.3449 63.3705V74.2663C99.3449 76.2494 99.8993 77.2082 101.895 77.2082C102.028 77.2082 102.361 77.2082 102.582 77.1646C102.782 77.1429 102.893 77.0775 102.893 76.816V75.6392C102.893 75.4867 102.871 75.2688 102.649 75.2688H102.383C101.673 75.2688 101.451 75.0508 101.451 74.1356V63.3487C101.451 63.2179 101.363 63.1525 101.23 63.1525H99.5445C99.4114 63.1525 99.3449 63.2397 99.3449 63.3705Z" fill="white"/>
<path d="M108.244 67.2494C107.113 67.2494 105.916 67.5109 105.073 67.9031C104.94 67.9467 104.896 68.0993 104.94 68.2518L105.317 69.3196C105.384 69.4939 105.495 69.5375 105.716 69.4504C106.337 69.1671 107.357 68.9709 107.956 68.9709C109.331 68.9709 109.819 69.5157 109.819 70.4964V70.9976H109.752C109.242 70.6053 108.355 70.4528 107.712 70.4528C105.362 70.4528 104.098 71.9346 104.098 73.8305C104.098 75.8136 105.317 77.1646 107.535 77.1646C108.444 77.1646 109.264 76.9467 109.929 76.293L109.996 76.3148V76.816C109.996 76.9467 110.063 77.0339 110.218 77.0339H111.703C111.859 77.0339 111.947 76.9685 111.947 76.7724V70.8668C111.947 68.6441 111.038 67.2494 108.244 67.2494ZM106.049 73.7651C106.049 72.7627 106.759 72.0218 107.867 72.0218C109.109 72.0218 109.686 72.7845 109.686 73.7651C109.686 74.7676 108.976 75.5085 107.867 75.5085C106.559 75.5085 106.049 74.7458 106.049 73.7651Z" fill="white"/>
<path d="M127.886 73.2421C127.886 70.6053 125.757 69.908 123.828 69.2107C122.719 68.7966 121.366 68.3172 121.366 67.2058C121.366 65.7676 122.364 65.2881 123.517 65.2881C124.293 65.2881 125.114 65.5714 126.023 66.0726C126.245 66.1816 126.511 66.2034 126.644 65.9855L127.198 65.0484C127.331 64.8305 127.442 64.678 127.154 64.46C125.979 63.6538 124.604 63.414 123.34 63.414C121.056 63.414 119.193 64.8305 119.193 67.184C119.193 69.5811 121.255 70.431 122.985 71.0194C124.382 71.4988 125.69 71.9782 125.69 73.3075C125.69 74.5278 124.759 75.2688 123.118 75.2688C122.209 75.2688 121.122 74.8547 120.391 74.1574C120.147 73.9613 120.014 73.8523 119.792 74.0702L118.949 74.9201C118.705 75.1598 118.727 75.2906 118.927 75.4867C119.881 76.5981 121.521 77.1429 123.162 77.1429C125.89 77.1429 127.886 75.6828 127.886 73.2421Z" fill="white"/>
<path d="M129.676 67.707V73.5036C129.676 75.661 130.851 77.1429 133.113 77.1429C133.911 77.1429 134.975 76.9031 135.641 76.293C135.641 76.293 135.663 76.3148 135.685 76.3148V76.7942C135.685 76.9685 135.752 77.0339 135.929 77.0339H137.459C137.636 77.0339 137.725 76.9467 137.725 76.7724V67.6852C137.725 67.5327 137.614 67.4237 137.437 67.4237H135.907C135.729 67.4237 135.619 67.5327 135.619 67.707V73.4818C135.619 74.5714 134.798 75.3777 133.712 75.3777C132.359 75.3777 131.782 74.5496 131.782 73.4818V67.6852C131.782 67.5327 131.694 67.4237 131.494 67.4237H129.942C129.787 67.4237 129.676 67.5327 129.676 67.707Z" fill="white"/>
<path d="M148.21 76.7724V70.9758C148.21 68.8184 147.012 67.3148 144.773 67.3148C143.974 67.3148 142.932 67.5763 142.267 68.1864C142.245 68.1864 142.223 68.1646 142.2 68.1646V67.6852C142.2 67.4891 142.134 67.4237 141.957 67.4237H140.426C140.249 67.4237 140.16 67.5327 140.16 67.707V76.7724C140.16 76.9467 140.271 77.0339 140.449 77.0339H141.979C142.178 77.0339 142.267 76.9467 142.267 76.7724V70.9758C142.267 69.908 143.087 69.1017 144.196 69.1017C145.527 69.1017 146.103 69.908 146.103 70.9976V76.7724C146.103 76.9467 146.192 77.0339 146.391 77.0339H147.944C148.121 77.0339 148.21 76.9467 148.21 76.7724Z" fill="white"/>
<path d="M163.76 76.707V75.4431C163.76 75.247 163.649 75.1598 163.471 75.1598H158.061V63.8499C158.061 63.6755 157.972 63.5884 157.75 63.5884H156.22C155.976 63.5884 155.91 63.6755 155.91 63.8717V76.7288C155.91 76.9249 156.021 77.0339 156.242 77.0339H163.471C163.671 77.0339 163.76 76.9249 163.76 76.707Z" fill="white"/>
<path d="M167.85 64.6126C167.85 63.937 167.252 63.3923 166.542 63.3923C165.855 63.3923 165.278 63.937 165.278 64.6126C165.278 65.3099 165.855 65.8329 166.564 65.8329C167.252 65.8329 167.85 65.2663 167.85 64.6126ZM167.584 76.7724V67.707C167.584 67.5109 167.473 67.4237 167.296 67.4237H165.744C165.566 67.4237 165.478 67.5109 165.478 67.707V76.7724C165.478 76.9467 165.588 77.0339 165.766 77.0339H167.318C167.629 77.0339 167.584 76.7724 167.584 76.7724Z" fill="white"/>
<path d="M175.432 63.6538C175.498 63.3487 175.321 63.2833 175.099 63.1961C174.766 63.0872 174.146 63 173.502 63C171.662 63 170.642 64.2857 170.642 65.8329V67.4237H169.533C169.334 67.4237 169.245 67.5109 169.245 67.6852V68.8402C169.245 69.0363 169.334 69.1235 169.511 69.1235H170.642V76.7724C170.642 76.9031 170.708 77.0339 170.908 77.0339H172.416C172.593 77.0339 172.704 76.9467 172.704 76.7724V69.1235H174.722C174.899 69.1235 174.988 69.0363 174.988 68.8402V67.6852C174.988 67.5109 174.899 67.4237 174.7 67.4237H172.704V66.0944C172.704 65.3971 172.992 64.8741 173.791 64.8741C174.057 64.8741 174.478 64.9395 174.7 65.0048C175.01 65.092 175.166 65.0266 175.21 64.8087L175.432 63.6538Z" fill="white"/>
<path d="M184.412 72.0872V71.063C184.412 68.7966 182.816 67.2712 180.399 67.2712C178.026 67.2712 176.363 68.8184 176.363 71.063V73.5254C176.363 75.7264 177.915 77.1646 180.354 77.1646C181.862 77.1646 183.215 76.6416 183.991 75.3559C184.168 75.0508 183.969 74.9201 183.813 74.8329L182.904 74.2228C182.749 74.1138 182.594 74.092 182.416 74.3099C181.995 74.8111 181.286 75.3777 180.399 75.3777C179.046 75.3777 178.469 74.4843 178.469 73.4383V72.6755H183.88C184.146 72.6755 184.412 72.4358 184.412 72.0872ZM180.399 69.0363C181.64 69.0363 182.306 69.8208 182.306 70.8015V71.1719H178.492V70.8232C178.492 69.6901 179.29 69.0363 180.399 69.0363Z" fill="white"/>
<path d="M194.186 76.7288V63.8717C194.186 63.6755 194.031 63.5884 193.854 63.5884H192.302C192.08 63.5884 191.969 63.6973 191.969 63.8935V76.7506C191.969 76.9467 192.102 77.0339 192.302 77.0339H193.854C194.076 77.0339 194.186 76.9467 194.186 76.7288Z" fill="white"/>
<path d="M205.119 76.7724V70.9758C205.119 68.8184 203.922 67.3148 201.682 67.3148C200.884 67.3148 199.841 67.5763 199.176 68.1864C199.154 68.1864 199.132 68.1646 199.11 68.1646V67.6852C199.11 67.4891 199.043 67.4237 198.866 67.4237H197.336C197.158 67.4237 197.07 67.5327 197.07 67.707V76.7724C197.07 76.9467 197.18 77.0339 197.358 77.0339H198.888C199.088 77.0339 199.176 76.9467 199.176 76.7724V70.9758C199.176 69.908 199.997 69.1017 201.105 69.1017C202.436 69.1017 203.012 69.908 203.012 70.9976V76.7724C203.012 76.9467 203.101 77.0339 203.301 77.0339H204.853C205.03 77.0339 205.119 76.9467 205.119 76.7724Z" fill="white"/>
<path d="M214.426 74.3317C214.426 72.1961 212.275 71.6949 210.545 71.1065C209.769 70.845 209.348 70.4964 209.348 69.9952C209.348 69.3196 210.124 69.0363 210.811 69.0363C211.454 69.0363 212.341 69.4068 212.918 69.8426C213.029 69.9298 213.118 69.9516 213.184 69.9516C213.251 69.9516 213.317 69.908 213.384 69.8426L214.115 68.9056C214.248 68.7748 214.226 68.6223 214.115 68.5133C213.206 67.6199 211.92 67.293 210.767 67.293C208.949 67.3148 207.308 68.2518 207.308 70.1041C207.308 71.586 208.416 72.3051 209.747 72.7627L211.166 73.2421C211.92 73.5254 212.364 73.7869 212.364 74.3971C212.364 75.0726 211.721 75.4649 210.9 75.4649C209.991 75.4649 209.237 75.0291 208.727 74.2881C208.594 74.1138 208.527 74.0484 208.306 74.1574L207.153 74.724C207.064 74.7676 207.019 74.8547 207.019 74.9201C207.019 74.9855 207.042 75.0291 207.064 75.0944C207.751 76.5545 209.237 77.1429 210.789 77.1429C212.962 77.1429 214.426 76.0097 214.426 74.3317Z" fill="white"/>
<path d="M216.274 67.707V73.5036C216.274 75.661 217.449 77.1429 219.711 77.1429C220.509 77.1429 221.574 76.9031 222.239 76.293C222.239 76.293 222.261 76.3148 222.283 76.3148V76.7942C222.283 76.9685 222.35 77.0339 222.527 77.0339H224.057C224.235 77.0339 224.323 76.9467 224.323 76.7724V67.6852C224.323 67.5327 224.212 67.4237 224.035 67.4237H222.505C222.328 67.4237 222.217 67.5327 222.217 67.707V73.4818C222.217 74.5714 221.396 75.3777 220.31 75.3777C218.957 75.3777 218.381 74.5496 218.381 73.4818V67.6852C218.381 67.5327 218.292 67.4237 218.092 67.4237H216.54C216.385 67.4237 216.274 67.5327 216.274 67.707Z" fill="white"/>
<path d="M227.091 67.4455C226.914 67.4455 226.825 67.5327 226.825 67.707V76.7724C226.825 76.9467 226.936 77.0339 227.113 77.0339H228.666C228.843 77.0339 228.932 76.9467 228.932 76.7724V71.7385C228.932 70.3656 229.464 69.3632 231.016 69.3632C231.26 69.3632 231.57 69.4504 231.837 69.4504C231.947 69.4504 232.036 69.385 232.081 69.1671L232.391 67.7724C232.413 67.707 232.413 67.6634 232.413 67.5981C232.413 67.3584 231.97 67.2712 231.46 67.2712C230.329 67.2712 229.309 67.9031 228.799 68.7312H228.732V67.6852C228.732 67.5109 228.621 67.4455 228.422 67.4455H227.091Z" fill="white"/>
<path d="M237.459 67.2494C236.329 67.2494 235.131 67.5109 234.288 67.9031C234.155 67.9467 234.111 68.0993 234.155 68.2518L234.532 69.3196C234.599 69.4939 234.71 69.5375 234.932 69.4504C235.552 69.1671 236.572 68.9709 237.171 68.9709C238.546 68.9709 239.034 69.5157 239.034 70.4964V70.9976H238.967C238.457 70.6053 237.57 70.4528 236.927 70.4528C234.577 70.4528 233.313 71.9346 233.313 73.8305C233.313 75.8136 234.532 77.1646 236.75 77.1646C237.659 77.1646 238.479 76.9467 239.145 76.293L239.211 76.3148V76.816C239.211 76.9467 239.278 77.0339 239.433 77.0339H240.919C241.074 77.0339 241.163 76.9685 241.163 76.7724V70.8668C241.163 68.6441 240.253 67.2494 237.459 67.2494ZM235.264 73.7651C235.264 72.7627 235.974 72.0218 237.082 72.0218C238.324 72.0218 238.901 72.7845 238.901 73.7651C238.901 74.7676 238.191 75.5085 237.082 75.5085C235.774 75.5085 235.264 74.7458 235.264 73.7651Z" fill="white"/>
<path d="M251.634 76.7724V70.9758C251.634 68.8184 250.436 67.3148 248.197 67.3148C247.399 67.3148 246.356 67.5763 245.691 68.1864C245.669 68.1864 245.647 68.1646 245.625 68.1646V67.6852C245.625 67.4891 245.558 67.4237 245.381 67.4237H243.851C243.673 67.4237 243.585 67.5327 243.585 67.707V76.7724C243.585 76.9467 243.695 77.0339 243.873 77.0339H245.403C245.602 77.0339 245.691 76.9467 245.691 76.7724V70.9758C245.691 69.908 246.512 69.1017 247.62 69.1017C248.951 69.1017 249.527 69.908 249.527 70.9976V76.7724C249.527 76.9467 249.616 77.0339 249.816 77.0339H251.368C251.545 77.0339 251.634 76.9467 251.634 76.7724Z" fill="white"/>
<path d="M261.429 75.2906C261.562 75.1162 261.517 74.9637 261.229 74.7676L260.32 74.1792C260.054 74.0048 259.943 74.0484 259.765 74.2663C259.455 74.6804 258.901 75.3559 257.814 75.3559C256.728 75.3559 255.885 74.5932 255.885 73.5472V70.9104C255.885 69.8426 256.728 69.0581 257.836 69.0581C258.346 69.0581 259.211 69.4286 259.655 70.1041C259.788 70.322 259.943 70.5182 260.253 70.3002L261.251 69.6029C261.451 69.4722 261.451 69.2107 261.362 69.0799C260.519 67.8814 259.278 67.2712 257.881 67.2712C255.552 67.2712 253.778 68.7094 253.778 71.0194V73.5036C253.778 75.7482 255.397 77.1646 257.836 77.1646C259.344 77.1646 260.542 76.5763 261.429 75.2906Z" fill="white"/>
<path d="M271.01 72.0872V71.063C271.01 68.7966 269.414 67.2712 266.997 67.2712C264.624 67.2712 262.961 68.8184 262.961 71.063V73.5254C262.961 75.7264 264.513 77.1646 266.952 77.1646C268.46 77.1646 269.813 76.6416 270.589 75.3559C270.767 75.0508 270.567 74.9201 270.412 74.8329L269.503 74.2228C269.347 74.1138 269.192 74.092 269.015 74.3099C268.593 74.8111 267.884 75.3777 266.997 75.3777C265.644 75.3777 265.068 74.4843 265.068 73.4383V72.6755H270.478C270.744 72.6755 271.01 72.4358 271.01 72.0872ZM266.997 69.0363C268.239 69.0363 268.904 69.8208 268.904 70.8015V71.1719H265.09V70.8232C265.09 69.6901 265.888 69.0363 266.997 69.0363Z" fill="white"/>
<path d="M282.514 77.1646C284.066 77.1646 285.508 76.5763 286.461 75.247C286.55 75.0944 286.484 74.8983 286.35 74.8111L285.242 74.0484C284.976 73.8741 284.843 74.0702 284.687 74.2446C284.2 74.7676 283.401 75.2688 282.536 75.2688C281.206 75.2688 280.43 74.4407 280.43 73.3729V67.2276C280.43 66.138 281.139 65.2881 282.47 65.2881C283.357 65.2881 284.2 65.7022 284.71 66.3777C284.82 66.5521 285.064 66.6392 285.242 66.5085L286.262 65.724C286.506 65.5278 286.484 65.3753 286.35 65.201C285.242 63.7627 283.867 63.3923 282.403 63.3923C279.986 63.3923 278.235 64.8741 278.235 67.184V73.3947C278.235 75.77 280.031 77.1646 282.514 77.1646Z" fill="white"/>
<path d="M296.045 73.46V70.9322C296.045 68.6005 294.47 67.2494 292.009 67.2494C289.636 67.2494 287.995 68.7312 287.995 70.954V73.5036C287.995 75.8136 289.547 77.1646 292.031 77.1646C294.515 77.1646 296.045 75.8354 296.045 73.46ZM290.102 70.9758C290.102 69.8426 290.789 69.0581 292.031 69.0581C293.273 69.0581 293.938 69.8426 293.938 70.9758V73.46C293.938 74.615 293.206 75.3777 292.009 75.3777C290.723 75.3777 290.102 74.5714 290.102 73.46V70.9758Z" fill="white"/>
<path d="M311.767 76.7506V70.954C311.767 68.7966 310.547 67.2712 308.019 67.2712C306.822 67.2712 305.646 67.816 305.048 68.6005H304.981C304.405 67.7724 303.274 67.2712 302.165 67.2712C299.704 67.2712 298.284 68.8402 298.284 70.954V76.7724C298.284 76.9467 298.395 77.0339 298.573 77.0339H300.125C300.325 77.0339 300.391 76.9467 300.391 76.7506V70.954C300.391 69.9516 301.056 69.0581 302.209 69.0581C303.407 69.0581 303.983 69.9516 303.983 70.954V76.7724C303.983 76.9467 304.072 77.0339 304.272 77.0339H305.802C306.001 77.0339 306.068 76.9467 306.068 76.7506V70.954C306.068 69.9734 306.866 69.0581 307.864 69.0581C309.084 69.0581 309.66 69.9516 309.66 70.954V76.7724C309.66 76.9467 309.749 77.0339 309.948 77.0339H311.501C311.678 77.0339 311.767 76.9467 311.767 76.7506Z" fill="white"/>
<path d="M314.093 67.6852V80.7167C314.093 80.8692 314.203 80.9782 314.381 80.9782H315.911C316.11 80.9782 316.199 80.891 316.199 80.6949V76.5981L316.266 76.5545C316.798 76.9467 317.419 77.1646 318.483 77.1646C320.878 77.1646 322.142 75.4867 322.142 73.4818V70.9322C322.142 68.7094 320.856 67.3366 318.661 67.3366C317.663 67.3366 316.709 67.6416 316.133 68.23C316.11 68.23 316.088 68.2082 316.066 68.2082V67.6852C316.066 67.5109 315.955 67.4237 315.778 67.4237H314.359C314.159 67.4237 314.093 67.5327 314.093 67.6852ZM316.199 70.9976C316.199 69.9298 317.042 69.1017 318.173 69.1017C319.481 69.1017 320.058 70.0387 320.058 71.1501V73.4818C320.058 74.5496 319.481 75.3995 318.106 75.3995C316.731 75.3995 316.199 74.3753 316.199 73.2639V70.9976Z" fill="white"/>
<path d="M328.194 67.2494C327.063 67.2494 325.865 67.5109 325.023 67.9031C324.89 67.9467 324.845 68.0993 324.89 68.2518L325.267 69.3196C325.333 69.4939 325.444 69.5375 325.666 69.4504C326.287 69.1671 327.307 68.9709 327.906 68.9709C329.28 68.9709 329.768 69.5157 329.768 70.4964V70.9976H329.702C329.192 70.6053 328.305 70.4528 327.662 70.4528C325.311 70.4528 324.047 71.9346 324.047 73.8305C324.047 75.8136 325.267 77.1646 327.484 77.1646C328.393 77.1646 329.214 76.9467 329.879 76.293L329.946 76.3148V76.816C329.946 76.9467 330.012 77.0339 330.167 77.0339H331.653C331.808 77.0339 331.897 76.9685 331.897 76.7724V70.8668C331.897 68.6441 330.988 67.2494 328.194 67.2494ZM325.998 73.7651C325.998 72.7627 326.708 72.0218 327.817 72.0218C329.059 72.0218 329.635 72.7845 329.635 73.7651C329.635 74.7676 328.926 75.5085 327.817 75.5085C326.508 75.5085 325.998 74.7458 325.998 73.7651Z" fill="white"/>
<path d="M342.368 76.7724V70.9758C342.368 68.8184 341.171 67.3148 338.931 67.3148C338.133 67.3148 337.091 67.5763 336.425 68.1864C336.403 68.1864 336.381 68.1646 336.359 68.1646V67.6852C336.359 67.4891 336.292 67.4237 336.115 67.4237H334.585C334.408 67.4237 334.319 67.5327 334.319 67.707V76.7724C334.319 76.9467 334.43 77.0339 334.607 77.0339H336.137C336.337 77.0339 336.425 76.9467 336.425 76.7724V70.9758C336.425 69.908 337.246 69.1017 338.355 69.1017C339.685 69.1017 340.262 69.908 340.262 70.9976V76.7724C340.262 76.9467 340.35 77.0339 340.55 77.0339H342.102C342.28 77.0339 342.368 76.9467 342.368 76.7724Z" fill="white"/>
<path d="M346.154 67.7724C346.087 67.5763 345.976 67.4237 345.666 67.4237H344.18C343.958 67.4237 343.87 67.5327 343.87 67.707C343.87 67.7506 343.87 67.7942 343.892 67.8378L346.397 76.5981C346.486 76.9031 346.641 77.0339 346.93 77.0339H347.417L346.309 80.4334C346.176 80.7385 346.309 81 346.641 81H347.772C348.171 81 348.371 80.7603 348.438 80.5424L352.651 67.8814C352.673 67.816 352.673 67.7724 352.673 67.7288C352.673 67.5545 352.562 67.4237 352.34 67.4237H351.032C350.655 67.4237 350.544 67.6416 350.478 67.8378L348.083 75.2034H348.038L347.218 71.9346C346.863 70.54 346.53 69.1671 346.154 67.7724Z" fill="white"/>
<path d="M367.381 76.707V75.4431C367.381 75.247 367.27 75.1598 367.093 75.1598H361.682V63.8499C361.682 63.6755 361.594 63.5884 361.372 63.5884H359.842C359.598 63.5884 359.531 63.6755 359.531 63.8717V76.7288C359.531 76.9249 359.642 77.0339 359.864 77.0339H367.093C367.293 77.0339 367.381 76.9249 367.381 76.707Z" fill="white"/>
<path d="M371.472 64.6126C371.472 63.937 370.873 63.3923 370.164 63.3923C369.476 63.3923 368.9 63.937 368.9 64.6126C368.9 65.3099 369.476 65.8329 370.186 65.8329C370.873 65.8329 371.472 65.2663 371.472 64.6126ZM371.206 76.7724V67.707C371.206 67.5109 371.095 67.4237 370.918 67.4237H369.365C369.188 67.4237 369.099 67.5109 369.099 67.707V76.7724C369.099 76.9467 369.21 77.0339 369.388 77.0339H370.94C371.25 77.0339 371.206 76.7724 371.206 76.7724Z" fill="white"/>
<path d="M387.169 76.7506V70.954C387.169 68.7966 385.95 67.2712 383.422 67.2712C382.224 67.2712 381.049 67.816 380.45 68.6005H380.384C379.807 67.7724 378.676 67.2712 377.568 67.2712C375.106 67.2712 373.687 68.8402 373.687 70.954V76.7724C373.687 76.9467 373.798 77.0339 373.975 77.0339H375.528C375.727 77.0339 375.794 76.9467 375.794 76.7506V70.954C375.794 69.9516 376.459 69.0581 377.612 69.0581C378.809 69.0581 379.386 69.9516 379.386 70.954V76.7724C379.386 76.9467 379.475 77.0339 379.674 77.0339H381.204C381.404 77.0339 381.47 76.9467 381.47 76.7506V70.954C381.47 69.9734 382.269 69.0581 383.267 69.0581C384.486 69.0581 385.063 69.9516 385.063 70.954V76.7724C385.063 76.9467 385.151 77.0339 385.351 77.0339H386.903C387.081 77.0339 387.169 76.9467 387.169 76.7506Z" fill="white"/>
<path d="M392.001 64.6126C392.001 63.937 391.402 63.3923 390.693 63.3923C390.005 63.3923 389.429 63.937 389.429 64.6126C389.429 65.3099 390.005 65.8329 390.715 65.8329C391.402 65.8329 392.001 65.2663 392.001 64.6126ZM391.735 76.7724V67.707C391.735 67.5109 391.624 67.4237 391.447 67.4237H389.894C389.717 67.4237 389.628 67.5109 389.628 67.707V76.7724C389.628 76.9467 389.739 77.0339 389.917 77.0339H391.469C391.779 77.0339 391.735 76.7724 391.735 76.7724Z" fill="white"/>
<path d="M399.826 76.4673L399.627 75.4213C399.582 75.1816 399.494 75.0508 399.072 75.138C398.784 75.1816 398.163 75.2688 397.919 75.2688C397.121 75.2688 396.877 74.8111 396.877 74.0484V69.1235H399.05C399.25 69.1235 399.338 69.0363 399.338 68.862V67.6852C399.338 67.5109 399.227 67.4237 399.05 67.4237H396.877V64.9831C396.877 64.8305 396.788 64.678 396.522 64.7433L395.081 65.0702C394.881 65.1138 394.815 65.2663 394.815 65.3971V67.4237H393.662C393.506 67.4237 393.396 67.5109 393.396 67.707V68.862C393.396 69.0363 393.506 69.1235 393.706 69.1235H394.815V74.4407C394.815 75.9879 395.458 77.1646 397.587 77.1646C398.207 77.1646 399.028 77.0993 399.516 76.9249C399.737 76.8378 399.871 76.7724 399.826 76.4673Z" fill="white"/>
<path d="M409.083 72.0872V71.063C409.083 68.7966 407.486 67.2712 405.069 67.2712C402.696 67.2712 401.033 68.8184 401.033 71.063V73.5254C401.033 75.7264 402.585 77.1646 405.025 77.1646C406.532 77.1646 407.885 76.6416 408.661 75.3559C408.839 75.0508 408.639 74.9201 408.484 74.8329L407.575 74.2228C407.419 74.1138 407.264 74.092 407.087 74.3099C406.665 74.8111 405.956 75.3777 405.069 75.3777C403.716 75.3777 403.14 74.4843 403.14 73.4383V72.6755H408.55C408.816 72.6755 409.083 72.4358 409.083 72.0872ZM405.069 69.0363C406.311 69.0363 406.976 69.8208 406.976 70.8015V71.1719H403.162V70.8232C403.162 69.6901 403.96 69.0363 405.069 69.0363Z" fill="white"/>
<path d="M419 76.7724V63.414C419 63.2615 418.911 63.1525 418.712 63.1525H417.182C417.004 63.1525 416.893 63.2397 416.893 63.4358V67.8378C416.871 67.8596 416.849 67.8378 416.827 67.8596C416.339 67.5109 415.652 67.293 414.676 67.293C412.259 67.293 410.951 68.9492 410.951 70.9976V73.5254C410.951 75.7918 412.281 77.1429 414.476 77.1429C415.386 77.1429 416.406 76.9249 416.96 76.3148C416.982 76.3148 417.026 76.3366 417.049 76.3366V76.7942C417.049 76.9685 417.16 77.0339 417.315 77.0339H418.756C418.956 77.0339 419 76.9467 419 76.7724ZM416.893 73.4818C416.893 74.5278 416.073 75.3777 414.92 75.3777C413.589 75.3777 413.057 74.4625 413.057 73.3293V70.9976C413.057 69.9298 413.612 69.0799 414.986 69.0799C416.361 69.0799 416.916 70.0605 416.916 71.1501C416.916 71.9346 416.893 72.6973 416.893 73.4818Z" fill="white"/>
</g>
<defs>
<clipPath id="clip0">
<rect width="1442" height="100" fill="white" transform="translate(-2)"/>
</clipPath>
<clipPath id="clip1">
<rect width="1439.67" height="100.07" fill="white" transform="translate(0 -0.034668)"/>
</clipPath>
</defs>
</svg>
