<svg width="40" height="40" viewBox="0 0 40 40" fill="none" xmlns="http://www.w3.org/2000/svg">
<path d="M20.3753 26.1598H24.9692C27.3119 26.1598 27.4641 27.823 27.4641 27.823L17.68 31.5861C17.0255 31.8381 16.2954 31.8024 15.6683 31.4888L10 28.6547V22.8333H10.8316C11.7506 22.8333 14.0799 23.1976 14.9897 24.4966H17.4846C19.3216 24.4966 20.8111 25.986 20.8111 27.823H14.9897" stroke="#7C7C7B" stroke-width="2"/>
<path d="M18.7083 21.9167C21.999 21.9167 24.6667 19.249 24.6667 15.9583C24.6667 12.6676 21.999 10 18.7083 10C15.4176 10 12.75 12.6676 12.75 15.9583C12.75 19.249 15.4176 21.9167 18.7083 21.9167Z" stroke="#7C7C7B" stroke-width="2" stroke-linecap="square"/>
<path d="M21.0001 14.1875V13.6667H16.4167V14.1875H18.0033C18.6705 14.1875 19.2324 14.5274 19.3895 14.9855H16.4167V15.5063H19.3895C19.2324 15.9644 18.6706 16.3043 18.0033 16.3043H16.4167V16.8251H17.8006L19.2476 19.1667L19.8128 18.9047L18.4983 16.7774C19.2739 16.6259 19.8735 16.1267 20.0065 15.5063H21.0001V14.9855H20.0065C19.9414 14.6815 19.7646 14.4066 19.5096 14.1875H21.0001V14.1875Z" fill="#7C7C7B" stroke="#7C7C7B" stroke-width="0.6"/>
</svg>
