<svg width="19" height="27" viewBox="0 0 19 27" fill="none" xmlns="http://www.w3.org/2000/svg">
<path fill-rule="evenodd" clip-rule="evenodd" d="M12.6511 11.017H6.34926C3.85709 12.8547 1 16.5765 1 19.5169C1 23.5861 3.26663 25.7502 9.49988 25.7502C15.7331 25.7502 17.9998 23.5861 17.9998 19.5169C17.9998 16.5765 15.1427 12.8547 12.6511 11.017Z" stroke="#7C7C7B" stroke-width="2" stroke-linecap="round"/>
<path d="M12.3333 15.1547V14.417H6.66675V15.1548H8.62827C9.45317 15.1548 10.1479 15.6363 10.3421 16.2853H6.66675V17.0231H10.3421C10.1479 17.672 9.45327 18.1535 8.62827 18.1535H6.66675V18.8914H8.37773L10.1666 22.2085L10.8654 21.8374L9.24022 18.8238C10.1992 18.6091 10.9405 17.9019 11.105 17.0231H12.3333V16.2853H11.105C11.0244 15.8546 10.8059 15.4652 10.4906 15.1548H12.3333V15.1547Z" fill="#7C7C7B" stroke="#7C7C7B" stroke-width="0.6"/>
<path fill-rule="evenodd" clip-rule="evenodd" d="M11.3227 7.61708C11.2425 8.01321 11.2002 8.39103 11.2002 8.7504L12.3335 7.61708H11.3227ZM7.67776 7.61708H6.66693L7.80024 8.7504C7.80024 8.39103 7.75798 8.01321 7.67776 7.61708ZM6.94501 5.40742C6.8229 5.12821 6.6899 4.84551 6.54728 4.56028C6.28544 4.0366 6.00597 3.53357 5.72627 3.06738C5.55711 2.78545 5.42361 2.57567 5.34327 2.45516L3.95386 4.1255L6.94501 5.40742ZM9.50022 5.00205L10.5525 2.3714H8.44796L9.50022 5.00205ZM12.0554 5.40742L15.0466 4.1255L13.6572 2.45516C13.5768 2.57567 13.4433 2.78545 13.2742 3.06738C12.9945 3.53357 12.715 4.0366 12.4532 4.56028C12.3105 4.84551 12.1775 5.12821 12.0554 5.40742Z" stroke="#7C7C7B" stroke-width="2"/>
</svg>
