<svg width="375" height="67" viewBox="0 0 375 67" fill="none" xmlns="http://www.w3.org/2000/svg">
<rect width="234.375" height="67" fill="#D68E87"/>
<rect x="234.375" width="140.625" height="67" fill="#C7222A"/>
<path d="M248.133 49.048V50.467H248.788C249.193 50.467 249.469 50.1887 249.469 49.7581C249.469 49.4221 249.246 49.048 248.788 49.048H248.133ZM248.795 50.9225H248.133L248.139 52.4833C248.139 52.5345 248.113 52.5594 248.06 52.5594H247.667C247.621 52.5594 247.588 52.5345 247.588 52.4911V48.6555C247.588 48.6095 247.615 48.5833 247.667 48.5833H248.788C249.555 48.5833 250.014 49.0939 250.014 49.7634C250.014 50.4013 249.495 50.9225 248.795 50.9225Z" fill="white"/>
<path d="M251.199 49.048V50.467H252.052C252.091 50.467 252.13 50.446 252.157 50.4342C252.393 50.2727 252.542 49.9629 252.542 49.7581C252.542 49.4221 252.406 49.048 251.816 49.048H251.199ZM252.497 50.807C252.478 50.8201 252.47 50.8398 252.478 50.8529C252.492 50.8792 252.511 50.9304 253.225 52.4189C253.278 52.5292 253.204 52.5594 253.152 52.5594H252.812C252.675 52.5594 252.64 52.5161 252.601 52.4321L251.901 50.9225H251.199L251.206 52.4833C251.206 52.5345 251.181 52.5594 251.127 52.5594H250.734C250.688 52.5594 250.655 52.5345 250.655 52.4911V48.6555C250.655 48.6095 250.681 48.5833 250.734 48.5833H251.886C252.707 48.5833 253.099 49.023 253.099 49.699C253.099 50.1506 252.785 50.5694 252.497 50.807Z" fill="white"/>
<path d="M255.794 49.6405C255.794 49.2743 255.512 49.0025 255.099 49.0025C254.673 49.0025 254.398 49.2808 254.398 49.6405V51.4849C254.398 51.8655 254.653 52.1281 255.092 52.1281C255.525 52.1281 255.794 51.8721 255.794 51.4849V49.6405ZM255.099 52.6007C254.392 52.6007 253.848 52.2187 253.848 51.498V49.6287C253.848 48.9461 254.398 48.5339 255.092 48.5339C255.774 48.5339 256.343 48.9198 256.343 49.6287V51.498C256.343 52.1937 255.812 52.6007 255.099 52.6007Z" fill="white"/>
<path d="M259.346 49.048H258.42V52.4833C258.42 52.5345 258.408 52.5594 258.349 52.5594H257.951C257.898 52.5594 257.871 52.5345 257.871 52.4911V49.048H256.967C256.915 49.048 256.887 49.0348 256.887 48.9771V48.6555C256.887 48.6095 256.915 48.5833 256.967 48.5833H259.346C259.398 48.5833 259.425 48.6095 259.425 48.6489V48.9771C259.425 49.023 259.398 49.048 259.346 49.048Z" fill="white"/>
<path d="M262.196 52.5607H260.06C260.014 52.5607 259.982 52.5345 259.982 52.4898V48.6541C259.982 48.6108 260.008 48.5833 260.06 48.5833H262.17C262.216 48.5833 262.255 48.6108 262.255 48.6541V48.9705C262.255 49.0151 262.229 49.048 262.177 49.048H260.532V50.2543H261.893C261.947 50.2543 261.975 50.2793 261.975 50.3305V50.6534C261.975 50.698 261.947 50.7243 261.901 50.7243H260.532V52.0908H262.196C262.242 52.0908 262.275 52.1157 262.275 52.1604V52.4833C262.275 52.5345 262.249 52.5607 262.196 52.5607Z" fill="white"/>
<path d="M265.204 49.1522L264.956 49.3596C264.922 49.3911 264.85 49.378 264.817 49.3346C264.66 49.1404 264.386 49.0052 264.117 49.0052C263.704 49.0052 263.467 49.2625 263.467 49.63V51.5058C263.467 51.8655 263.731 52.1307 264.15 52.1307C264.418 52.1307 264.668 51.9705 264.817 51.8222C264.863 51.7697 264.903 51.7238 264.968 51.7763L265.232 51.9889C265.257 52.0073 265.263 52.0598 265.244 52.0913C264.981 52.4274 264.576 52.6006 264.15 52.6006C263.449 52.6006 262.916 52.2147 262.916 51.5124V49.63C262.916 48.9527 263.416 48.5339 264.111 48.5339C264.517 48.5339 264.897 48.6324 265.224 49.0104C265.263 49.0629 265.27 49.0944 265.204 49.1522Z" fill="white"/>
<path d="M267.977 49.048H267.052V52.4833C267.052 52.5345 267.04 52.5594 266.981 52.5594H266.581C266.528 52.5594 266.502 52.5345 266.502 52.4911V49.048H265.599C265.546 49.048 265.519 49.0348 265.519 48.9771V48.6555C265.519 48.6095 265.546 48.5833 265.599 48.5833H267.977C268.03 48.5833 268.056 48.6095 268.056 48.6489V48.9771C268.056 49.023 268.03 49.048 267.977 49.048Z" fill="white"/>
<path d="M269.202 52.5607H268.795C268.751 52.5607 268.718 52.5345 268.718 52.4898V48.6541C268.718 48.6108 268.743 48.5833 268.795 48.5833H269.202C269.248 48.5833 269.282 48.6108 269.282 48.6476V52.4833C269.282 52.5345 269.254 52.5607 269.202 52.5607Z" fill="white"/>
<path d="M270.638 48.5833C270.743 48.5833 270.776 48.6305 270.815 48.687L272.348 51.4581H272.361V48.6555C272.361 48.6095 272.375 48.5833 272.433 48.5833H272.801C272.852 48.5833 272.879 48.6095 272.879 48.6476V52.4308C272.879 52.541 272.807 52.562 272.754 52.562H272.505C272.407 52.562 272.367 52.5292 272.335 52.4649L270.808 49.7056H270.789V52.4833C270.789 52.5358 270.776 52.562 270.717 52.562H270.343C270.29 52.562 270.264 52.5358 270.264 52.4898V48.746C270.264 48.6358 270.279 48.5833 270.402 48.5833H270.638Z" fill="white"/>
<path d="M274.944 52.6019C274.242 52.6019 273.711 52.2147 273.711 51.5111V49.63C273.711 48.954 274.257 48.5339 274.95 48.5339C275.376 48.5339 275.842 48.6822 276.058 49.0564C276.09 49.1141 276.077 49.1404 276.025 49.185L275.768 49.3845C275.723 49.4173 275.67 49.3911 275.631 49.3399C275.449 49.0892 275.18 49.0117 274.957 49.0117C274.478 49.0117 274.262 49.315 274.262 49.6825V51.5058C274.262 51.8668 274.524 52.1307 274.944 52.1307C275.317 52.1307 275.565 51.9049 275.565 51.519V50.8744H275.042C274.99 50.8744 274.962 50.8547 274.962 50.8036V50.4741C274.962 50.4242 274.99 50.3979 275.042 50.3979H276.044C276.09 50.3979 276.129 50.4242 276.129 50.4741V51.5255C276.129 52.1556 275.645 52.6019 274.944 52.6019Z" fill="white"/>
<path d="M281.851 52.5607H281.444C281.4 52.5607 281.366 52.5345 281.366 52.4898V48.6541C281.366 48.6108 281.392 48.5833 281.444 48.5833H281.851C281.897 48.5833 281.93 48.6108 281.93 48.6476V52.4833C281.93 52.5345 281.903 52.5607 281.851 52.5607Z" fill="white"/>
<path d="M283.287 48.5833C283.391 48.5833 283.425 48.6305 283.464 48.687L284.997 51.4581H285.01V48.6555C285.01 48.6095 285.023 48.5833 285.082 48.5833H285.449C285.502 48.5833 285.527 48.6095 285.527 48.6476V52.4308C285.527 52.541 285.456 52.562 285.403 52.562H285.154C285.056 52.562 285.015 52.5292 284.984 52.4649L283.457 49.7056H283.436V52.4833C283.436 52.5358 283.425 52.562 283.366 52.562H282.992C282.94 52.562 282.913 52.5358 282.913 52.4898V48.746C282.913 48.6358 282.926 48.5833 283.051 48.5833H283.287Z" fill="white"/>
<path d="M287.776 52.503C287.763 52.5476 287.729 52.5607 287.683 52.5607H287.237C287.178 52.5607 287.152 52.5292 287.14 52.4964L286.052 48.6935C286.032 48.6358 286.059 48.5833 286.137 48.5833H286.544C286.603 48.5833 286.621 48.6043 286.636 48.6423L287.206 50.8726L287.454 51.9031H287.481L287.717 50.8726L288.28 48.6423C288.293 48.6095 288.334 48.5833 288.372 48.5833H288.752C288.87 48.5833 288.855 48.6607 288.844 48.7067L287.776 52.503Z" fill="white"/>
<path d="M291.569 52.5607H289.434C289.388 52.5607 289.356 52.5345 289.356 52.4898V48.6541C289.356 48.6108 289.381 48.5833 289.434 48.5833H291.543C291.589 48.5833 291.628 48.6108 291.628 48.6541V48.9705C291.628 49.0151 291.602 49.048 291.551 49.048H289.906V50.2543H291.269C291.32 50.2543 291.348 50.2793 291.348 50.3305V50.6534C291.348 50.698 291.32 50.7243 291.274 50.7243H289.906V52.0908H291.569C291.615 52.0908 291.648 52.1157 291.648 52.1604V52.4833C291.648 52.5345 291.622 52.5607 291.569 52.5607Z" fill="white"/>
<path d="M294.113 51.4678C294.113 51.0346 293.713 50.8928 293.359 50.7707C292.849 50.5961 292.173 50.3585 292.173 49.6313C292.173 48.9395 292.697 48.5339 293.359 48.5339C293.674 48.5339 294.094 48.5864 294.467 48.8568C294.545 48.9146 294.492 48.9658 294.473 48.9973L294.315 49.2428C294.277 49.3005 294.205 49.2821 294.153 49.2493C293.856 49.0813 293.641 49.0104 293.418 49.0104C293.038 49.0104 292.718 49.1653 292.718 49.6418C292.718 49.991 293.123 50.1446 293.491 50.2811C294.073 50.5003 294.658 50.6933 294.658 51.4599C294.658 52.1556 294.086 52.5954 293.274 52.5954C292.776 52.5954 292.31 52.4221 292.074 52.0979C292.035 52.0532 292.035 52.0217 292.101 51.9705L292.345 51.7513C292.396 51.7119 292.43 51.7369 292.487 51.7959C292.691 52.0073 292.973 52.1228 293.268 52.1228C293.766 52.1228 294.113 51.8983 294.113 51.4678Z" fill="white"/>
<path d="M297.501 49.048H296.576V52.4833C296.576 52.5345 296.564 52.5594 296.505 52.5594H296.106C296.054 52.5594 296.026 52.5345 296.026 52.4911V49.048H295.123C295.071 49.048 295.043 49.0348 295.043 48.9771V48.6555C295.043 48.6095 295.071 48.5833 295.123 48.5833H297.501C297.553 48.5833 297.58 48.6095 297.58 48.6489V48.9771C297.58 49.023 297.553 49.048 297.501 49.048Z" fill="white"/>
<path d="M298.727 52.5607H298.32C298.274 52.5607 298.242 52.5345 298.242 52.4898V48.6541C298.242 48.6108 298.267 48.5833 298.32 48.5833H298.727C298.773 48.5833 298.806 48.6108 298.806 48.6476V52.4833C298.806 52.5345 298.778 52.5607 298.727 52.5607Z" fill="white"/>
<path d="M300.162 48.5833C300.267 48.5833 300.299 48.6305 300.339 48.687L301.873 51.4581H301.885V48.6555C301.885 48.6095 301.899 48.5833 301.958 48.5833H302.324C302.376 48.5833 302.403 48.6095 302.403 48.6476V52.4308C302.403 52.541 302.332 52.562 302.279 52.562H302.03C301.931 52.562 301.891 52.5292 301.86 52.4649L300.334 49.7056H300.313V52.4833C300.313 52.5358 300.299 52.562 300.24 52.562H299.867C299.814 52.562 299.788 52.5358 299.788 52.4898V48.746C299.788 48.6358 299.803 48.5833 299.926 48.5833H300.162Z" fill="white"/>
<path d="M304.468 52.6019C303.766 52.6019 303.235 52.2147 303.235 51.5111V49.63C303.235 48.954 303.781 48.5339 304.474 48.5339C304.901 48.5339 305.366 48.6822 305.581 49.0564C305.614 49.1141 305.602 49.1404 305.548 49.185L305.293 49.3845C305.247 49.4173 305.194 49.3911 305.155 49.3399C304.971 49.0892 304.704 49.0117 304.481 49.0117C304.002 49.0117 303.786 49.315 303.786 49.6825V51.5058C303.786 51.8668 304.048 52.1307 304.468 52.1307C304.842 52.1307 305.091 51.9049 305.091 51.519V50.8744H304.566C304.514 50.8744 304.488 50.8547 304.488 50.8036V50.4741C304.488 50.4242 304.514 50.3979 304.566 50.3979H305.568C305.614 50.3979 305.653 50.4242 305.653 50.4741V51.5255C305.653 52.1556 305.169 52.6019 304.468 52.6019Z" fill="white"/>
<path d="M312.87 49.048H311.316V50.2793H312.646C312.692 50.2793 312.719 50.3042 312.719 50.3554V50.6783C312.719 50.7229 312.705 50.7505 312.646 50.7505H311.316L311.324 52.4833C311.324 52.5345 311.296 52.5594 311.251 52.5594H310.851C310.805 52.5594 310.772 52.5345 310.772 52.4911V48.6555C310.772 48.6095 310.798 48.5833 310.851 48.5833H312.87C312.916 48.5833 312.949 48.6095 312.949 48.6489V48.9771C312.949 49.023 312.922 49.048 312.87 49.048Z" fill="white"/>
<path d="M314.075 52.5607H313.67C313.624 52.5607 313.591 52.5345 313.591 52.4898V48.6541C313.591 48.6108 313.617 48.5833 313.67 48.5833H314.075C314.121 48.5833 314.155 48.6108 314.155 48.6476V52.4833C314.155 52.5345 314.127 52.5607 314.075 52.5607Z" fill="white"/>
<path d="M315.511 48.5833C315.616 48.5833 315.648 48.6305 315.688 48.687L317.22 51.4581H317.234V48.6555C317.234 48.6095 317.248 48.5833 317.306 48.5833H317.674C317.725 48.5833 317.751 48.6095 317.751 48.6476V52.4308C317.751 52.541 317.679 52.562 317.628 52.562H317.379C317.279 52.562 317.241 52.5292 317.209 52.4649L315.681 49.7056H315.661V52.4833C315.661 52.5358 315.648 52.562 315.589 52.562H315.216C315.163 52.562 315.137 52.5358 315.137 52.4898V48.746C315.137 48.6358 315.151 48.5833 315.275 48.5833H315.511Z" fill="white"/>
<path d="M319.489 49.9695L319.187 51.2073H320.184L319.882 49.9957L319.692 49.1648H319.672L319.489 49.9695ZM320.602 52.562C320.55 52.562 320.518 52.5476 320.512 52.5161L320.289 51.6523H319.077L318.859 52.5161C318.854 52.5476 318.82 52.562 318.774 52.562H318.42C318.348 52.562 318.315 52.541 318.335 52.4636L319.305 48.662C319.312 48.6226 319.338 48.5833 319.41 48.5833H319.967C320.026 48.5833 320.053 48.5977 320.066 48.6476L321.061 52.4518C321.074 52.4964 321.081 52.562 321.003 52.562H320.602Z" fill="white"/>
<path d="M322.038 48.5833C322.143 48.5833 322.175 48.6305 322.216 48.687L323.749 51.4581H323.761V48.6555C323.761 48.6095 323.775 48.5833 323.834 48.5833H324.2C324.252 48.5833 324.279 48.6095 324.279 48.6476V52.4308C324.279 52.541 324.208 52.562 324.155 52.562H323.905C323.807 52.562 323.767 52.5292 323.736 52.4649L322.21 49.7056H322.189V52.4833C322.189 52.5358 322.175 52.562 322.118 52.562H321.744C321.69 52.562 321.664 52.5358 321.664 52.4898V48.746C321.664 48.6358 321.678 48.5833 321.802 48.5833H322.038Z" fill="white"/>
<path d="M327.399 49.1522L327.15 49.3596C327.117 49.3911 327.044 49.378 327.012 49.3346C326.855 49.1404 326.58 49.0052 326.311 49.0052C325.899 49.0052 325.662 49.2625 325.662 49.63V51.5058C325.662 51.8655 325.924 52.1307 326.344 52.1307C326.612 52.1307 326.861 51.9705 327.012 51.8222C327.058 51.7697 327.096 51.7238 327.163 51.7763L327.425 51.9889C327.451 52.0073 327.457 52.0598 327.438 52.0913C327.176 52.4274 326.77 52.6006 326.344 52.6006C325.642 52.6006 325.112 52.2147 325.112 51.5124V49.63C325.112 48.9527 325.609 48.5339 326.304 48.5339C326.711 48.5339 327.091 48.6324 327.417 49.0104C327.457 49.0629 327.463 49.0944 327.399 49.1522Z" fill="white"/>
<path d="M328.599 52.5607H328.191C328.146 52.5607 328.114 52.5345 328.114 52.4898V48.6541C328.114 48.6108 328.14 48.5833 328.191 48.5833H328.599C328.645 48.5833 328.677 48.6108 328.677 48.6476V52.4833C328.677 52.5345 328.65 52.5607 328.599 52.5607Z" fill="white"/>
<path d="M330.033 48.5833C330.138 48.5833 330.171 48.6305 330.21 48.687L331.743 51.4581H331.756V48.6555C331.756 48.6095 331.771 48.5833 331.83 48.5833H332.197C332.249 48.5833 332.274 48.6095 332.274 48.6476V52.4308C332.274 52.541 332.203 52.562 332.151 52.562H331.9C331.802 52.562 331.763 52.5292 331.731 52.4649L330.204 49.7056H330.184V52.4833C330.184 52.5358 330.171 52.562 330.112 52.562H329.738C329.687 52.562 329.66 52.5358 329.66 52.4898V48.746C329.66 48.6358 329.674 48.5833 329.797 48.5833H330.033Z" fill="white"/>
<path d="M334.339 52.6019C333.638 52.6019 333.107 52.2147 333.107 51.5111V49.63C333.107 48.954 333.652 48.5339 334.346 48.5339C334.772 48.5339 335.237 48.6822 335.454 49.0564C335.485 49.1141 335.473 49.1404 335.421 49.185L335.164 49.3845C335.118 49.4173 335.066 49.3911 335.026 49.3399C334.844 49.0892 334.575 49.0117 334.352 49.0117C333.874 49.0117 333.659 49.315 333.659 49.6825V51.5058C333.659 51.8668 333.92 52.1307 334.339 52.1307C334.713 52.1307 334.962 51.9049 334.962 51.519V50.8744H334.438C334.385 50.8744 334.359 50.8547 334.359 50.8036V50.4741C334.359 50.4242 334.385 50.3979 334.438 50.3979H335.439C335.485 50.3979 335.526 50.4242 335.526 50.4741V51.5255C335.526 52.1556 335.041 52.6019 334.339 52.6019Z" fill="white"/>
<path d="M341.548 49.9695L341.245 51.2073H342.243L341.942 49.9957L341.751 49.1648H341.732L341.548 49.9695ZM342.663 52.562C342.61 52.562 342.577 52.5476 342.571 52.5161L342.348 51.6523H341.136L340.919 52.5161C340.914 52.5476 340.879 52.562 340.834 52.562H340.48C340.407 52.562 340.375 52.541 340.394 52.4636L341.365 48.662C341.371 48.6226 341.397 48.5833 341.469 48.5833H342.027C342.086 48.5833 342.112 48.5977 342.126 48.6476L343.12 52.4518C343.133 52.4964 343.14 52.562 343.063 52.562H342.663Z" fill="white"/>
<path d="M345.638 49.6859C345.638 49.2409 345.349 49.048 344.943 49.048H344.274V52.0895H344.989C345.421 52.0895 345.638 51.8453 345.638 51.4462V49.6859ZM344.976 52.5607H343.802C343.756 52.5607 343.723 52.5345 343.723 52.4898V48.6555C343.723 48.6095 343.75 48.5833 343.802 48.5833H344.976C345.756 48.5833 346.187 49.0086 346.187 49.7437V51.3622C346.187 52.1551 345.743 52.5607 344.976 52.5607Z" fill="white"/>
<path d="M348.41 52.503C348.398 52.5476 348.364 52.5607 348.318 52.5607H347.872C347.813 52.5607 347.787 52.5292 347.775 52.4964L346.687 48.6935C346.667 48.6358 346.693 48.5833 346.771 48.5833H347.178C347.237 48.5833 347.256 48.6043 347.27 48.6423L347.841 50.8726L348.088 51.9031H348.116L348.352 50.8726L348.914 48.6423C348.928 48.6095 348.967 48.5833 349.006 48.5833H349.385C349.504 48.5833 349.49 48.6607 349.477 48.7067L348.41 52.503Z" fill="white"/>
<path d="M350.58 52.5607H350.172C350.127 52.5607 350.094 52.5345 350.094 52.4898V48.6541C350.094 48.6108 350.121 48.5833 350.172 48.5833H350.58C350.626 48.5833 350.658 48.6108 350.658 48.6476V52.4833C350.658 52.5345 350.632 52.5607 350.58 52.5607Z" fill="white"/>
<path d="M353.443 51.4678C353.443 51.0346 353.044 50.8928 352.69 50.7707C352.178 50.5961 351.504 50.3585 351.504 49.6313C351.504 48.9395 352.027 48.5339 352.69 48.5339C353.003 48.5339 353.424 48.5864 353.796 48.8568C353.876 48.9146 353.824 48.9658 353.803 48.9973L353.647 49.2428C353.607 49.3005 353.535 49.2821 353.483 49.2493C353.188 49.0813 352.971 49.0104 352.749 49.0104C352.368 49.0104 352.047 49.1653 352.047 49.6418C352.047 49.991 352.454 50.1446 352.819 50.2811C353.404 50.5003 353.986 50.6933 353.986 51.4599C353.986 52.1556 353.417 52.5954 352.604 52.5954C352.106 52.5954 351.642 52.4221 351.406 52.0979C351.367 52.0532 351.367 52.0217 351.431 51.9705L351.675 51.7513C351.727 51.7119 351.76 51.7369 351.819 51.7959C352.021 52.0073 352.303 52.1228 352.598 52.1228C353.095 52.1228 353.443 51.8983 353.443 51.4678Z" fill="white"/>
<path d="M355.258 52.5607H354.852C354.807 52.5607 354.774 52.5345 354.774 52.4898V48.6541C354.774 48.6108 354.799 48.5833 354.852 48.5833H355.258C355.304 48.5833 355.338 48.6108 355.338 48.6476V52.4833C355.338 52.5345 355.31 52.5607 355.258 52.5607Z" fill="white"/>
<path d="M356.694 48.5833C356.799 48.5833 356.831 48.6305 356.871 48.687L358.404 51.4581H358.417V48.6555C358.417 48.6095 358.431 48.5833 358.489 48.5833H358.857C358.908 48.5833 358.935 48.6095 358.935 48.6476V52.4308C358.935 52.541 358.862 52.562 358.811 52.562H358.561C358.463 52.562 358.423 52.5292 358.392 52.4649L356.864 49.7056H356.845V52.4833C356.845 52.5358 356.831 52.562 356.772 52.562H356.399C356.346 52.562 356.32 52.5358 356.32 52.4898V48.746C356.32 48.6358 356.334 48.5833 356.458 48.5833H356.694Z" fill="white"/>
<path d="M361 52.6019C360.298 52.6019 359.767 52.2147 359.767 51.5111V49.63C359.767 48.954 360.313 48.5339 361.006 48.5339C361.432 48.5339 361.898 48.6822 362.114 49.0564C362.146 49.1141 362.134 49.1404 362.081 49.185L361.824 49.3845C361.778 49.4173 361.726 49.3911 361.687 49.3399C361.504 49.0892 361.236 49.0117 361.013 49.0117C360.534 49.0117 360.318 49.315 360.318 49.6825V51.5058C360.318 51.8668 360.58 52.1307 361 52.1307C361.373 52.1307 361.622 51.9049 361.622 51.519V50.8744H361.098C361.045 50.8744 361.018 50.8547 361.018 50.8036V50.4741C361.018 50.4242 361.045 50.3979 361.098 50.3979H362.1C362.146 50.3979 362.185 50.4242 362.185 50.4741V51.5255C362.185 52.1556 361.701 52.6019 361 52.6019Z" fill="white"/>
<path d="M296.864 13.589L296.509 11.8353C296.496 11.7578 296.421 11.7421 296.407 11.8353L296.064 13.5562L295.609 15.7353C295.594 15.8416 295.594 15.8705 295.712 15.8705H297.248C297.336 15.8705 297.379 15.8416 297.336 15.7222L296.864 13.589ZM299.816 18.9081C299.846 19.0157 299.862 19.2284 299.594 19.2284H298.398C298.25 19.2284 298.148 19.168 298.105 19.0275L297.764 17.5048C297.72 17.3525 297.689 17.2908 297.572 17.2908H295.389C295.226 17.2908 295.226 17.384 295.181 17.4891C295.122 17.7936 294.916 18.7256 294.841 19.0275C294.812 19.168 294.68 19.2284 294.56 19.2284H293.424C293.144 19.2284 293.13 19.0905 293.174 18.9212L295.327 10.0329C295.371 9.89642 295.462 9.81897 295.637 9.81897H297.32C297.454 9.81897 297.572 9.81897 297.601 10.0198L299.816 18.9081Z" fill="white"/>
<path d="M303.64 17.686C304.511 17.686 304.879 17.1845 304.879 16.3772V12.6386C304.879 11.7093 304.377 11.3286 303.581 11.3286H302.445C302.239 11.3286 302.194 11.4362 302.194 11.5859V17.4431C302.194 17.6243 302.254 17.686 302.429 17.686H303.64ZM300.79 19.2271C300.615 19.2271 300.51 19.1365 300.51 18.9671V10.0815C300.51 9.90955 300.615 9.81897 300.79 9.81897H303.773C305.632 9.81897 306.549 10.8862 306.549 12.6268V16.3772C306.549 18.1441 305.618 19.2271 303.817 19.2271H300.79Z" fill="white"/>
<path d="M308.024 19.2271C307.862 19.2271 307.759 19.1667 307.759 18.9973V10.0487C307.759 9.87935 307.862 9.81897 308.024 9.81897H309.175C309.337 9.81897 309.442 9.87935 309.442 10.0487V18.9816C309.442 19.1667 309.353 19.2271 309.175 19.2271H308.024Z" fill="white"/>
<path d="M316.068 11.3286H314.328C314.15 11.3286 314.091 11.406 314.091 11.5268L314.076 18.9829C314.076 19.1667 313.987 19.2258 313.81 19.2258H312.672C312.511 19.2258 312.408 19.1667 312.408 18.9973L312.424 11.5439C312.424 11.406 312.394 11.3286 312.201 11.3286H310.549C310.371 11.3286 310.297 11.2524 310.297 11.0542V10.0802C310.297 9.90955 310.371 9.81897 310.549 9.81897H316.068C316.216 9.81897 316.291 9.90955 316.291 10.0644V11.0542C316.291 11.2236 316.246 11.3286 316.068 11.3286Z" fill="white"/>
<path d="M318.642 10.0631L319.969 13.7689C320.028 13.8293 320.072 13.8293 320.102 13.782C320.544 12.5783 321.016 11.2997 321.429 10.0946C321.52 9.89511 321.592 9.81897 321.887 9.81897H322.98C323.291 9.81897 323.291 9.98831 323.231 10.1235L320.957 15.5502C320.884 15.7195 320.869 15.7957 320.869 15.9493V18.9527C320.869 19.1352 320.766 19.2271 320.602 19.2271H319.465C319.291 19.2271 319.2 19.1352 319.2 18.9658V15.9178C319.2 15.8101 319.186 15.7051 319.127 15.583L316.839 10.1393C316.78 9.98831 316.765 9.81897 317.046 9.81897H318.213C318.433 9.81897 318.553 9.85047 318.642 10.0631Z" fill="white"/>
<path d="M325.843 13.589L325.487 11.8353C325.474 11.7578 325.399 11.7421 325.384 11.8353L325.045 13.5562L324.588 15.7353C324.573 15.8416 324.573 15.8705 324.691 15.8705H326.225C326.315 15.8705 326.358 15.8416 326.315 15.7222L325.843 13.589ZM328.793 18.9081C328.826 19.0157 328.84 19.2284 328.574 19.2284H327.379C327.23 19.2284 327.126 19.168 327.083 19.0275L326.742 17.5048C326.699 17.3525 326.67 17.2908 326.551 17.2908H324.366C324.205 17.2908 324.205 17.384 324.16 17.4891C324.101 17.7936 323.894 18.7256 323.821 19.0275C323.791 19.168 323.657 19.2284 323.539 19.2284H322.402C322.121 19.2284 322.108 19.0905 322.153 18.9212L324.306 10.0329C324.352 9.89642 324.441 9.81897 324.618 9.81897H326.3C326.434 9.81897 326.551 9.81897 326.581 10.0198L328.793 18.9081Z" fill="white"/>
<path d="M335.822 17.686C336.532 17.686 336.945 17.1057 336.945 16.3903C336.945 15.7051 336.621 14.9884 335.69 14.9884H334.33C334.154 14.9884 334.111 15.0645 334.111 15.2155V17.4877C334.111 17.6413 334.154 17.686 334.33 17.686H335.822ZM335.645 13.509C336.309 13.509 336.678 13.0049 336.678 12.3814C336.678 11.7263 336.281 11.3286 335.616 11.3286H334.287C334.154 11.3286 334.111 11.406 334.111 11.5268V13.2648C334.111 13.4341 334.17 13.509 334.301 13.509H335.645ZM337.358 14.1338C337.327 14.1653 337.327 14.2099 337.371 14.227C338.258 14.6221 338.656 15.52 338.656 16.3588C338.656 18.0653 337.609 19.2271 335.852 19.2271H332.706C332.53 19.2271 332.441 19.1365 332.441 18.9671V10.0815C332.441 9.90955 332.53 9.81897 332.706 9.81897H335.69C337.327 9.81897 338.362 10.688 338.362 12.3052C338.362 12.9445 337.933 13.7531 337.358 14.1338Z" fill="white"/>
<path d="M339.821 19.2271C339.659 19.2271 339.556 19.1667 339.556 18.9973V10.0487C339.556 9.87935 339.659 9.81897 339.821 9.81897H340.972C341.136 9.81897 341.24 9.87935 341.24 10.0487V18.9816C341.24 19.1667 341.152 19.2271 340.972 19.2271H339.821Z" fill="white"/>
<path d="M345.904 14.0879C345.994 14.0879 346.141 14.0419 346.2 13.9973C346.671 13.6153 346.894 13.0206 346.894 12.6386C346.894 11.8917 346.493 11.3286 345.638 11.3286H344.502C344.325 11.3286 344.279 11.3903 344.279 11.5583V13.8752C344.279 14.0117 344.311 14.0879 344.487 14.0879H345.904ZM345.772 9.81897C347.543 9.81897 348.591 10.8258 348.591 12.5468C348.591 13.6153 347.97 14.5604 347.291 15.2023C347.218 15.2929 347.218 15.3375 347.262 15.4307C347.275 15.4609 348.015 17.1228 348.825 18.8897C348.929 19.0892 348.812 19.2258 348.621 19.2258H347.498C347.098 19.2258 347.025 19.0892 346.936 18.8897L345.579 15.734C345.564 15.6592 345.507 15.5975 345.389 15.5975H344.414C344.325 15.5975 344.279 15.6434 344.279 15.7655V18.9829C344.279 19.1654 344.177 19.2258 344 19.2258H342.879C342.715 19.2258 342.612 19.1654 342.612 18.996V10.0815C342.612 9.90955 342.672 9.81897 342.849 9.81897H345.772Z" fill="white"/>
<path d="M354.775 17.686C354.909 17.686 355.011 17.7647 355.011 17.9459V18.9527C355.011 19.1365 354.938 19.2271 354.79 19.2271H349.831C349.654 19.2271 349.565 19.1365 349.565 18.9671V10.05C349.565 9.87935 349.654 9.81897 349.816 9.81897H350.965C351.13 9.81897 351.231 9.86623 351.231 10.0303V17.4589C351.231 17.6098 351.231 17.686 351.423 17.686H354.775Z" fill="white"/>
<path d="M359.236 13.589L358.881 11.8353C358.865 11.7578 358.793 11.7421 358.779 11.8353L358.438 13.5562L357.981 15.7353C357.966 15.8416 357.966 15.8705 358.084 15.8705H359.62C359.708 15.8705 359.752 15.8416 359.708 15.7222L359.236 13.589ZM362.189 18.9081C362.218 19.0157 362.234 19.2284 361.966 19.2284H360.77C360.622 19.2284 360.52 19.168 360.475 19.0275L360.137 17.5048C360.094 17.3525 360.061 17.2908 359.944 17.2908H357.76C357.597 17.2908 357.597 17.384 357.553 17.4891C357.494 17.7936 357.288 18.7256 357.212 19.0275C357.186 19.168 357.052 19.2284 356.932 19.2284H355.798C355.518 19.2284 355.502 19.0905 355.547 18.9212L357.701 10.0329C357.745 9.89642 357.832 9.81897 358.009 9.81897H359.693C359.828 9.81897 359.944 9.81897 359.973 10.0198L362.189 18.9081Z" fill="white"/>
<path d="M293.155 31.6517V25.7051C293.155 23.4066 294.994 21.8826 297.509 21.8826C299.058 21.8826 300.538 22.2908 301.662 23.8372C301.796 24.0091 301.82 24.2244 301.55 24.3925L300.337 25.2759C300.091 25.4045 299.844 25.2969 299.732 25.1039C299.237 24.4148 298.476 24.0301 297.598 24.0301C296.342 24.0301 295.692 24.8453 295.692 25.7905V31.6517C295.692 32.5522 296.366 33.3057 297.622 33.3057C298.452 33.3057 299.215 32.8541 299.709 32.2949C299.867 32.1452 299.999 31.9076 300.294 32.0822L301.639 32.8751C301.841 32.9827 301.932 33.198 301.82 33.391C300.786 34.8927 299.261 35.4742 297.576 35.4742C294.95 35.4742 293.155 33.9909 293.155 31.6517Z" fill="white"/>
<path d="M308.846 27.4031L308.305 24.9326C308.285 24.8289 308.17 24.8079 308.149 24.9326L307.634 27.3624L306.938 30.4302C306.914 30.5798 306.914 30.6245 307.094 30.6245H309.427C309.562 30.6245 309.63 30.5798 309.562 30.4105L308.846 27.4031ZM313.335 34.8947C313.38 35.0469 313.402 35.3475 312.998 35.3475H311.181C310.957 35.3475 310.797 35.2622 310.731 35.0666L310.213 32.923C310.146 32.7077 310.103 32.6224 309.921 32.6224H306.601C306.353 32.6224 306.353 32.7497 306.286 32.9007C306.197 33.3299 305.882 34.64 305.77 35.0666C305.726 35.2622 305.523 35.3475 305.344 35.3475H303.615C303.188 35.3475 303.167 35.1546 303.234 34.917L306.513 22.4017C306.577 22.2088 306.712 22.1011 306.983 22.1011H309.541C309.744 22.1011 309.921 22.1011 309.969 22.3794L313.335 34.8947Z" fill="white"/>
<path d="M320.135 24.222H318.385C318.138 24.222 318.073 24.3493 318.073 24.5423V27.4827C318.073 27.719 318.163 27.807 318.385 27.807H320.135C321.214 27.807 321.933 27.0745 321.933 26.0217C321.933 25.1015 321.303 24.222 320.135 24.222ZM320.16 29.9296H318.362C318.138 29.9296 318.094 30.0372 318.094 30.1895V34.9979C318.094 35.2355 317.96 35.3418 317.691 35.3418H315.963C315.693 35.3418 315.535 35.2355 315.535 34.9979V22.4183C315.535 22.1807 315.693 22.0941 315.963 22.0941H320.135C322.807 22.0941 324.47 23.7494 324.47 26.0663C324.47 28.2769 322.65 29.9296 320.16 29.9296Z" fill="white"/>
<path d="M327.478 35.3418C327.23 35.3418 327.074 35.2565 327.074 35.0202V22.4183C327.074 22.1807 327.23 22.0941 327.478 22.0941H329.23C329.473 22.0941 329.632 22.1807 329.632 22.4183V34.9979C329.632 35.2565 329.497 35.3418 329.23 35.3418H327.478Z" fill="white"/>
<path d="M340.878 24.222H338.23C337.961 24.222 337.869 24.327 337.869 24.499L337.849 34.9979C337.849 35.2578 337.713 35.3418 337.443 35.3418H335.716C335.468 35.3418 335.311 35.2578 335.311 35.0202L335.333 24.5226C335.333 24.327 335.289 24.222 334.996 24.222H332.483C332.214 24.222 332.101 24.113 332.101 23.8347V22.4577C332.101 22.2254 332.214 22.0941 332.483 22.0941H340.878C341.101 22.0941 341.216 22.2254 341.216 22.4407V23.8347C341.216 24.071 341.147 24.222 340.878 24.222Z" fill="white"/>
<path d="M347.142 27.4031L346.603 24.9326C346.58 24.8289 346.468 24.8079 346.445 24.9326L345.93 27.3624L345.232 30.4302C345.21 30.5798 345.21 30.6245 345.39 30.6245H347.724C347.86 30.6245 347.927 30.5798 347.86 30.4105L347.142 27.4031ZM351.631 34.8947C351.676 35.0469 351.698 35.3475 351.294 35.3475H349.475C349.251 35.3475 349.095 35.2622 349.027 35.0666L348.509 32.923C348.442 32.7077 348.398 32.6224 348.217 32.6224H344.897C344.649 32.6224 344.649 32.7497 344.583 32.9007C344.493 33.3299 344.178 34.64 344.067 35.0666C344.022 35.2622 343.819 35.3475 343.641 35.3475H341.911C341.485 35.3475 341.46 35.1546 341.53 34.917L344.806 22.4017C344.873 22.2088 345.007 22.1011 345.278 22.1011H347.835C348.037 22.1011 348.217 22.1011 348.264 22.3794L351.631 34.8947Z" fill="white"/>
<path d="M361.844 33.179C362.047 33.179 362.205 33.2853 362.205 33.5452V34.959C362.205 35.2176 362.089 35.3475 361.866 35.3475H354.324C354.054 35.3475 353.92 35.2176 353.92 34.9813V22.424C353.92 22.1864 354.054 22.1011 354.302 22.1011H356.054C356.3 22.1011 356.458 22.1641 356.458 22.4004V32.8574C356.458 33.0713 356.458 33.179 356.75 33.179H361.844Z" fill="white"/>
<path d="M288.689 9.82602H247.594V35.3475H288.689V9.82602Z" fill="white"/>
<path d="M288.647 9.84691H247.588V35.346H288.647V9.84691Z" fill="white"/>
<path d="M283.456 10.3055L276.808 20.958L282.757 28.2487L288.177 25.79V10.3055H283.456Z" fill="#AF1E23"/>
<path d="M282.757 28.2473L288.176 34.8882V25.7886L282.757 28.2473Z" fill="#F36F31"/>
<path d="M268.116 10.3055L276.808 20.958L283.456 10.3055H268.116Z" fill="#F36F31"/>
<path d="M274.423 24.7806L276.808 20.9567L268.116 10.3055V23.0622C268.137 23.0622 268.156 23.0609 268.175 23.0609C270.463 23.0609 272.602 23.6897 274.423 24.7806Z" fill="#FFD65C"/>
<path d="M268.175 23.06C268.156 23.06 268.137 23.0613 268.118 23.0613V34.8887L274.423 24.7797C272.602 23.6888 270.463 23.06 268.175 23.06Z" fill="#AF1E23"/>
<path d="M279.087 29.9141L282.757 28.2496L276.808 20.9589L274.423 24.7828C276.449 25.9957 278.08 27.7836 279.087 29.9141Z" fill="#F36F31"/>
<path d="M274.423 24.7804L268.116 34.8894L279.087 29.913C278.08 27.7812 276.449 25.9946 274.423 24.7804Z" fill="#D71D24"/>
<path d="M282.757 28.2493L279.087 29.9138C279.802 31.4273 280.2 33.1128 280.2 34.8915H288.176L282.757 28.2493Z" fill="#FFD65C"/>
<path d="M268.118 34.8896H280.2C280.2 33.1123 279.8 31.4254 279.087 29.9132L268.118 34.8896Z" fill="#AF1E23"/>
<path d="M248.058 10.3055V25.79L253.477 28.2487L259.426 20.958L252.779 10.3055H248.058Z" fill="#AF1E23"/>
<path d="M248.058 34.8882L253.477 28.2473L248.058 25.7886V34.8882Z" fill="#F36F31"/>
<path d="M252.778 10.3055L259.426 20.958L268.116 10.3055H252.778Z" fill="#F36F31"/>
<path d="M261.811 24.7806L259.426 20.9567L268.118 10.3055V23.0622C268.097 23.0622 268.078 23.0609 268.059 23.0609C265.771 23.0609 263.632 23.6897 261.811 24.7806Z" fill="#D71D24"/>
<path d="M268.059 23.06C268.078 23.06 268.097 23.0613 268.118 23.0613V34.8887L261.811 24.7797C263.632 23.6888 265.771 23.06 268.059 23.06Z" fill="#F36F31"/>
<path d="M257.147 29.9141L253.477 28.2496L259.426 20.9589L261.811 24.7828C259.785 25.9957 258.154 27.7836 257.147 29.9141Z" fill="#F36F31"/>
<path d="M261.811 24.7804L268.118 34.8894L257.147 29.913C258.154 27.7812 259.785 25.9946 261.811 24.7804Z" fill="#D71D24"/>
<path d="M253.477 28.2493L257.147 29.9138C256.432 31.4273 256.034 33.1128 256.034 34.8915H248.058L253.477 28.2493Z" fill="#FFD65C"/>
<path d="M268.118 34.8896H256.034C256.034 33.1123 256.434 31.4254 257.147 29.9132L268.118 34.8896Z" fill="#AF1E23"/>
<path fill-rule="evenodd" clip-rule="evenodd" d="M247.882 57.1601H275.871C276.016 57.1601 276.133 57.0433 276.133 56.8976C276.133 56.7532 276.016 56.635 275.871 56.635H247.882C247.737 56.635 247.62 56.7532 247.62 56.8976C247.62 57.0433 247.737 57.1601 247.882 57.1601Z" fill="white"/>
<path d="M19.95 24.1764V23.2321C19.95 23.0856 19.8688 23.0205 19.7388 23.0205H15.7738V14.5709C15.7738 14.4407 15.7088 14.3756 15.5463 14.3756H14.425C14.2463 14.3756 14.1975 14.4407 14.1975 14.5872V24.1926C14.1975 24.3392 14.2788 24.4206 14.4413 24.4206H19.7388C19.885 24.4206 19.95 24.3392 19.95 24.1764Z" fill="white"/>
<path d="M22.9478 15.1408C22.9478 14.6361 22.509 14.2291 21.989 14.2291C21.4853 14.2291 21.0628 14.6361 21.0628 15.1408C21.0628 15.6617 21.4853 16.0525 22.0053 16.0525C22.509 16.0525 22.9478 15.6292 22.9478 15.1408ZM22.7528 24.2252V17.4526C22.7528 17.306 22.6715 17.2409 22.5415 17.2409H21.404C21.274 17.2409 21.209 17.306 21.209 17.4526V24.2252C21.209 24.3554 21.2903 24.4206 21.4203 24.4206H22.5578C22.7853 24.4206 22.7528 24.2252 22.7528 24.2252Z" fill="white"/>
<path d="M28.5035 14.4244C28.5522 14.1965 28.4222 14.1476 28.2597 14.0825C28.016 14.0011 27.561 13.936 27.0897 13.936C25.741 13.936 24.9935 14.8965 24.9935 16.0525V17.2409H24.181C24.0347 17.2409 23.9697 17.306 23.9697 17.4363V18.2991C23.9697 18.4457 24.0347 18.5108 24.1647 18.5108H24.9935V24.2252C24.9935 24.3229 25.0422 24.4206 25.1885 24.4206H26.2935C26.4235 24.4206 26.5047 24.3554 26.5047 24.2252V18.5108H27.9835C28.1135 18.5108 28.1785 18.4457 28.1785 18.2991V17.4363C28.1785 17.306 28.1135 17.2409 27.9672 17.2409H26.5047V16.2478C26.5047 15.7268 26.716 15.3361 27.301 15.3361C27.496 15.3361 27.8047 15.385 27.9672 15.4338C28.1947 15.4989 28.3085 15.4501 28.341 15.2873L28.5035 14.4244Z" fill="white"/>
<path d="M35.0846 20.7249V19.9597C35.0846 18.2666 33.9146 17.127 32.1434 17.127C30.4046 17.127 29.1859 18.2829 29.1859 19.9597V21.7994C29.1859 23.4437 30.3234 24.5182 32.1109 24.5182C33.2159 24.5182 34.2071 24.1275 34.7759 23.167C34.9059 22.9391 34.7596 22.8414 34.6459 22.7762L33.9796 22.3204C33.8659 22.239 33.7521 22.2227 33.6221 22.3855C33.3134 22.76 32.7934 23.1833 32.1434 23.1833C31.1521 23.1833 30.7296 22.5158 30.7296 21.7343V21.1645H34.6946C34.8896 21.1645 35.0846 20.9854 35.0846 20.7249ZM32.1434 18.4457C33.0534 18.4457 33.5409 19.0318 33.5409 19.7644V20.0411H30.7459V19.7807C30.7459 18.9341 31.3309 18.4457 32.1434 18.4457Z" fill="white"/>
<path d="M42.2473 24.1926V14.5872C42.2473 14.4407 42.1335 14.3756 42.0035 14.3756H40.866C40.7035 14.3756 40.6223 14.457 40.6223 14.6035V24.2089C40.6223 24.3554 40.7198 24.4206 40.866 24.4206H42.0035C42.166 24.4206 42.2473 24.3554 42.2473 24.1926Z" fill="white"/>
<path d="M50.2589 24.2252V19.8946C50.2589 18.2829 49.3814 17.1595 47.7402 17.1595C47.1552 17.1595 46.3914 17.3549 45.9039 17.8107C45.8877 17.8107 45.8714 17.7945 45.8552 17.7945V17.4363C45.8552 17.2898 45.8064 17.2409 45.6764 17.2409H44.5552C44.4252 17.2409 44.3602 17.3223 44.3602 17.4526V24.2252C44.3602 24.3554 44.4414 24.4206 44.5714 24.4206H45.6927C45.8389 24.4206 45.9039 24.3554 45.9039 24.2252V19.8946C45.9039 19.0969 46.5052 18.4945 47.3177 18.4945C48.2927 18.4945 48.7152 19.0969 48.7152 19.9109V24.2252C48.7152 24.3554 48.7802 24.4206 48.9264 24.4206H50.0639C50.1939 24.4206 50.2589 24.3554 50.2589 24.2252Z" fill="white"/>
<path d="M57.0791 22.4018C57.0791 20.8063 55.5029 20.4319 54.2354 19.9923C53.6666 19.7969 53.3579 19.5365 53.3579 19.162C53.3579 18.6573 53.9266 18.4457 54.4304 18.4457C54.9016 18.4457 55.5516 18.7224 55.9741 19.048C56.0554 19.1132 56.1204 19.1294 56.1691 19.1294C56.2179 19.1294 56.2666 19.0969 56.3154 19.048L56.8516 18.348C56.9491 18.2503 56.9329 18.1363 56.8516 18.0549C56.1854 17.3874 55.2429 17.1432 54.3979 17.1432C53.0654 17.1595 51.8629 17.8596 51.8629 19.2434C51.8629 20.3505 52.6754 20.8877 53.6504 21.2296L54.6904 21.5878C55.2429 21.7994 55.5679 21.9948 55.5679 22.4506C55.5679 22.9553 55.0966 23.2484 54.4954 23.2484C53.8291 23.2484 53.2766 22.9228 52.9029 22.3692C52.8054 22.239 52.7566 22.1902 52.5941 22.2716L51.7491 22.6948C51.6841 22.7274 51.6516 22.7925 51.6516 22.8414C51.6516 22.8902 51.6679 22.9228 51.6841 22.9716C52.1879 24.0624 53.2766 24.502 54.4141 24.502C56.0066 24.502 57.0791 23.6554 57.0791 22.4018Z" fill="white"/>
<path d="M58.4334 17.4526V21.7831C58.4334 23.3949 59.2947 24.502 60.9522 24.502C61.5372 24.502 62.3172 24.3229 62.8047 23.867C62.8047 23.867 62.8209 23.8833 62.8372 23.8833V24.2415C62.8372 24.3717 62.8859 24.4206 63.0159 24.4206H64.1372C64.2672 24.4206 64.3322 24.3554 64.3322 24.2252V17.4363C64.3322 17.3223 64.2509 17.2409 64.1209 17.2409H62.9997C62.8697 17.2409 62.7884 17.3223 62.7884 17.4526V21.7669C62.7884 22.5809 62.1872 23.1833 61.3909 23.1833C60.3997 23.1833 59.9772 22.5646 59.9772 21.7669V17.4363C59.9772 17.3223 59.9122 17.2409 59.7659 17.2409H58.6284C58.5147 17.2409 58.4334 17.3223 58.4334 17.4526Z" fill="white"/>
<path d="M66.3605 17.2572C66.2305 17.2572 66.1655 17.3223 66.1655 17.4526V24.2252C66.1655 24.3554 66.2468 24.4206 66.3768 24.4206H67.5143C67.6443 24.4206 67.7093 24.3554 67.7093 24.2252V20.4644C67.7093 19.4388 68.0993 18.6899 69.2368 18.6899C69.4155 18.6899 69.643 18.755 69.838 18.755C69.9193 18.755 69.9843 18.7062 70.0168 18.5434L70.2443 17.5014C70.2605 17.4526 70.2605 17.42 70.2605 17.3712C70.2605 17.1921 69.9355 17.127 69.5618 17.127C68.733 17.127 67.9855 17.5991 67.6118 18.2177H67.563V17.4363C67.563 17.306 67.4818 17.2572 67.3355 17.2572H66.3605Z" fill="white"/>
<path d="M73.9585 17.1107C73.1298 17.1107 72.2523 17.306 71.6348 17.5991C71.5373 17.6316 71.5048 17.7456 71.5373 17.8596L71.8135 18.6573C71.8623 18.7876 71.9435 18.8201 72.106 18.755C72.561 18.5434 73.3085 18.3968 73.7473 18.3968C74.7548 18.3968 75.1123 18.8038 75.1123 19.5365V19.9109H75.0635C74.6898 19.6179 74.0398 19.5039 73.5685 19.5039C71.846 19.5039 70.9198 20.611 70.9198 22.0274C70.9198 23.5089 71.8135 24.5182 73.4385 24.5182C74.1048 24.5182 74.706 24.3554 75.1935 23.867L75.2423 23.8833V24.2578C75.2423 24.3554 75.291 24.4206 75.4048 24.4206H76.4935C76.6073 24.4206 76.6723 24.3717 76.6723 24.2252V19.8132C76.6723 18.1526 76.006 17.1107 73.9585 17.1107ZM72.3498 21.9785C72.3498 21.2296 72.8698 20.6761 73.6823 20.6761C74.5923 20.6761 75.0148 21.2459 75.0148 21.9785C75.0148 22.7274 74.4948 23.2809 73.6823 23.2809C72.7235 23.2809 72.3498 22.7111 72.3498 21.9785Z" fill="white"/>
<path d="M84.3458 24.2252V19.8946C84.3458 18.2829 83.4683 17.1595 81.8271 17.1595C81.2421 17.1595 80.4783 17.3549 79.9908 17.8107C79.9746 17.8107 79.9583 17.7945 79.9421 17.7945V17.4363C79.9421 17.2898 79.8933 17.2409 79.7633 17.2409H78.6421C78.5121 17.2409 78.4471 17.3223 78.4471 17.4526V24.2252C78.4471 24.3554 78.5283 24.4206 78.6583 24.4206H79.7796C79.9258 24.4206 79.9908 24.3554 79.9908 24.2252V19.8946C79.9908 19.0969 80.5921 18.4945 81.4046 18.4945C82.3796 18.4945 82.8021 19.0969 82.8021 19.9109V24.2252C82.8021 24.3554 82.8671 24.4206 83.0133 24.4206H84.1508C84.2808 24.4206 84.3458 24.3554 84.3458 24.2252Z" fill="white"/>
<path d="M91.5235 23.1181C91.621 22.9879 91.5885 22.8739 91.3773 22.7274L90.711 22.2878C90.516 22.1576 90.4348 22.1902 90.3048 22.353C90.0773 22.6623 89.671 23.167 88.8748 23.167C88.0785 23.167 87.461 22.5972 87.461 21.8157V19.8458C87.461 19.048 88.0785 18.4619 88.891 18.4619C89.2648 18.4619 89.8985 18.7387 90.2235 19.2434C90.321 19.4062 90.4348 19.5527 90.6623 19.3899L91.3935 18.869C91.5398 18.7713 91.5398 18.5759 91.4748 18.4782C90.8573 17.5828 89.9473 17.127 88.9235 17.127C87.2173 17.127 85.9173 18.2015 85.9173 19.9272V21.7831C85.9173 23.46 87.1035 24.5182 88.891 24.5182C89.996 24.5182 90.8735 24.0787 91.5235 23.1181Z" fill="white"/>
<path d="M98.5453 20.7249V19.9597C98.5453 18.2666 97.3753 17.127 95.604 17.127C93.8653 17.127 92.6465 18.2829 92.6465 19.9597V21.7994C92.6465 23.4437 93.784 24.5182 95.5716 24.5182C96.6766 24.5182 97.6678 24.1275 98.2365 23.167C98.3665 22.9391 98.2203 22.8414 98.1066 22.7762L97.4403 22.3204C97.3265 22.239 97.2128 22.2227 97.0828 22.3855C96.7741 22.76 96.254 23.1833 95.604 23.1833C94.6128 23.1833 94.1903 22.5158 94.1903 21.7343V21.1645H98.1553C98.3503 21.1645 98.5453 20.9854 98.5453 20.7249ZM95.604 18.4457C96.514 18.4457 97.0015 19.0318 97.0015 19.7644V20.0411H94.2066V19.7807C94.2066 18.9341 94.7915 18.4457 95.604 18.4457Z" fill="white"/>
<path d="M18.0751 43.2056C18.2101 43.2056 18.2326 43.0816 18.1988 42.9914L16.5001 36.3866C16.4663 36.2739 16.4101 36.2514 16.2976 36.2514H15.1838C15.0601 36.2514 15.0038 36.319 14.9813 36.3979L13.3276 43.014C13.2826 43.138 13.3613 43.2056 13.4738 43.2056H14.2501C14.3288 43.2056 14.3963 43.1831 14.4076 43.1042C14.5088 42.6533 14.7113 41.8193 14.7451 41.7066H16.7363C16.8376 42.1687 16.9613 42.6308 17.0738 43.1042C17.0851 43.1718 17.1413 43.2056 17.2426 43.2056H18.0751ZM15.7126 37.4686H15.7463L16.0613 38.8775L16.5113 40.7823H14.9701L15.4201 38.8437C15.5101 38.3816 15.6226 37.9308 15.7126 37.4686Z" fill="white"/>
<path d="M22.9773 43.0703V36.1612C22.9773 36.0823 22.9323 36.0259 22.831 36.0259H22.0548C21.9648 36.0259 21.9085 36.071 21.9085 36.1725V38.4492C21.8973 38.4605 21.886 38.4492 21.8748 38.4605C21.6273 38.2802 21.2785 38.1674 20.7835 38.1674C19.5573 38.1674 18.8935 39.024 18.8935 40.0835V41.391C18.8935 42.5631 19.5685 43.262 20.6823 43.262C21.1435 43.262 21.661 43.1492 21.9423 42.8337C21.9535 42.8337 21.976 42.8449 21.9873 42.8449V43.0816C21.9873 43.1718 22.0435 43.2056 22.1223 43.2056H22.8535C22.9548 43.2056 22.9773 43.1605 22.9773 43.0703ZM21.9085 41.3684C21.9085 41.9094 21.4923 42.349 20.9073 42.349C20.2323 42.349 19.9623 41.8756 19.9623 41.2895V40.0835C19.9623 39.5312 20.2435 39.0917 20.941 39.0917C21.6385 39.0917 21.9198 39.5989 21.9198 40.1624C21.9198 40.5682 21.9085 40.9627 21.9085 41.3684Z" fill="white"/>
<path d="M25.4296 36.7811C25.4296 36.4317 25.1258 36.1499 24.7658 36.1499C24.4171 36.1499 24.1246 36.4317 24.1246 36.7811C24.1246 37.1418 24.4171 37.4123 24.7771 37.4123C25.1258 37.4123 25.4296 37.1192 25.4296 36.7811ZM25.2946 43.0703V38.3816C25.2946 38.2802 25.2383 38.2351 25.1483 38.2351H24.3608C24.2708 38.2351 24.2258 38.2802 24.2258 38.3816V43.0703C24.2258 43.1605 24.2821 43.2056 24.3721 43.2056H25.1596C25.3171 43.2056 25.2946 43.0703 25.2946 43.0703Z" fill="white"/>
<path d="M29.3996 42.9126L29.2984 42.3715C29.2759 42.2476 29.2309 42.1799 29.0171 42.225C28.8709 42.2476 28.5559 42.2926 28.4321 42.2926C28.0271 42.2926 27.9034 42.056 27.9034 41.6615V39.1142H29.0059C29.1071 39.1142 29.1521 39.0691 29.1521 38.979V38.3703C29.1521 38.2802 29.0959 38.2351 29.0059 38.2351H27.9034V36.9727C27.9034 36.8938 27.8584 36.8149 27.7234 36.8487L26.9921 37.0178C26.8909 37.0403 26.8571 37.1192 26.8571 37.1869V38.2351H26.2721C26.1934 38.2351 26.1371 38.2802 26.1371 38.3816V38.979C26.1371 39.0691 26.1934 39.1142 26.2946 39.1142H26.8571V41.8643C26.8571 42.6646 27.1834 43.2732 28.2634 43.2732C28.5784 43.2732 28.9946 43.2394 29.2421 43.1492C29.3546 43.1042 29.4221 43.0703 29.3996 42.9126Z" fill="white"/>
<path d="M30.8219 38.4154C30.7882 38.314 30.7319 38.2351 30.5744 38.2351H29.8207C29.7082 38.2351 29.6632 38.2914 29.6632 38.3816C29.6632 38.4041 29.6632 38.4267 29.6744 38.4492L30.9457 42.9802C30.9907 43.138 31.0694 43.2056 31.2157 43.2056H31.4632L30.9007 44.9639C30.8332 45.1217 30.9007 45.2569 31.0694 45.2569H31.6432C31.8457 45.2569 31.9469 45.1329 31.9807 45.0202L34.1182 38.4718C34.1294 38.438 34.1294 38.4154 34.1294 38.3929C34.1294 38.3027 34.0732 38.2351 33.9607 38.2351H33.2969C33.1057 38.2351 33.0494 38.3478 33.0157 38.4492L31.8007 42.2588H31.7782L31.3619 40.5682C31.1819 39.8468 31.0132 39.1368 30.8219 38.4154Z" fill="white"/>
<path d="M36.8605 38.1449C36.2867 38.1449 35.6792 38.2802 35.2517 38.483C35.1842 38.5056 35.1617 38.5845 35.1842 38.6634L35.3755 39.2157C35.4092 39.3058 35.4655 39.3284 35.578 39.2833C35.893 39.1368 36.4105 39.0353 36.7142 39.0353C37.4117 39.0353 37.6592 39.3171 37.6592 39.8243V40.0835H37.6255C37.3667 39.8806 36.9167 39.8017 36.5905 39.8017C35.398 39.8017 34.7567 40.5682 34.7567 41.5488C34.7567 42.5744 35.3755 43.2732 36.5005 43.2732C36.9617 43.2732 37.378 43.1605 37.7155 42.8224L37.7492 42.8337V43.0929C37.7492 43.1605 37.783 43.2056 37.8617 43.2056H38.6155C38.6942 43.2056 38.7392 43.1718 38.7392 43.0703V40.0159C38.7392 38.8662 38.278 38.1449 36.8605 38.1449ZM35.7467 41.5149C35.7467 40.9965 36.1067 40.6133 36.6692 40.6133C37.2992 40.6133 37.5917 41.0077 37.5917 41.5149C37.5917 42.0334 37.2317 42.4166 36.6692 42.4166C36.0055 42.4166 35.7467 42.0221 35.7467 41.5149Z" fill="white"/>
<path d="M47.084 41.1205C47.084 40.478 46.8252 39.7567 46.0827 39.4862V39.4411C46.5665 39.1931 46.8702 38.5619 46.8702 38.0773C46.8702 36.8938 46.094 36.2514 44.8677 36.2514H42.719C42.5952 36.2514 42.5615 36.3077 42.5615 36.4092V43.0478C42.5615 43.1492 42.6177 43.2056 42.7302 43.2056H45.0027C46.2965 43.2056 47.084 42.349 47.084 41.1205ZM45.9702 41.143C45.9702 41.8193 45.5652 42.2363 44.9015 42.2363H43.664V39.9934H44.8002C45.6665 39.9934 45.9702 40.5231 45.9702 41.143ZM45.7677 38.0998C45.7677 38.607 45.4527 39.0353 44.8452 39.0353H43.664V37.2207H44.7665C45.374 37.2207 45.7677 37.5137 45.7677 38.0998Z" fill="white"/>
<path d="M49.3688 36.7811C49.3688 36.4317 49.0651 36.1499 48.7051 36.1499C48.3563 36.1499 48.0638 36.4317 48.0638 36.7811C48.0638 37.1418 48.3563 37.4123 48.7163 37.4123C49.0651 37.4123 49.3688 37.1192 49.3688 36.7811ZM49.2338 43.0703V38.3816C49.2338 38.2802 49.1776 38.2351 49.0876 38.2351H48.3C48.2101 38.2351 48.1651 38.2802 48.1651 38.3816V43.0703C48.1651 43.1605 48.2213 43.2056 48.3113 43.2056H49.0988C49.2563 43.2056 49.2338 43.0703 49.2338 43.0703Z" fill="white"/>
<path d="M50.6726 38.2463C50.5826 38.2463 50.5376 38.2914 50.5376 38.3816V43.0703C50.5376 43.1605 50.5938 43.2056 50.6838 43.2056H51.4713C51.5613 43.2056 51.6063 43.1605 51.6063 43.0703V40.4667C51.6063 39.7567 51.8763 39.2382 52.6638 39.2382C52.7876 39.2382 52.9451 39.2833 53.0801 39.2833C53.1363 39.2833 53.1813 39.2495 53.2038 39.1368L53.3613 38.4154C53.3726 38.3816 53.3726 38.3591 53.3726 38.3252C53.3726 38.2013 53.1476 38.1562 52.8888 38.1562C52.3151 38.1562 51.7976 38.483 51.5388 38.9113H51.5051V38.3703C51.5051 38.2802 51.4488 38.2463 51.3476 38.2463H50.6726Z" fill="white"/>
<path d="M54.0765 36.1387V41.7742C54.0765 42.7998 54.3577 43.2958 55.3702 43.2958C55.4377 43.2958 55.6065 43.2958 55.719 43.2732C55.8202 43.262 55.8765 43.2281 55.8765 43.0929V42.4843C55.8765 42.4054 55.8652 42.2926 55.7527 42.2926H55.6177C55.2577 42.2926 55.1452 42.1799 55.1452 41.7066V36.1274C55.1452 36.0598 55.1002 36.0259 55.0327 36.0259H54.1777C54.1102 36.0259 54.0765 36.071 54.0765 36.1387Z" fill="white"/>
<path d="M58.5914 38.1449C58.0177 38.1449 57.4102 38.2802 56.9827 38.483C56.9152 38.5056 56.8927 38.5845 56.9152 38.6634L57.1064 39.2157C57.1402 39.3058 57.1964 39.3284 57.3089 39.2833C57.6239 39.1368 58.1414 39.0353 58.4452 39.0353C59.1427 39.0353 59.3902 39.3171 59.3902 39.8243V40.0835H59.3564C59.0977 39.8806 58.6477 39.8017 58.3214 39.8017C57.1289 39.8017 56.4877 40.5682 56.4877 41.5488C56.4877 42.5744 57.1064 43.2732 58.2314 43.2732C58.6927 43.2732 59.1089 43.1605 59.4464 42.8224L59.4802 42.8337V43.0929C59.4802 43.1605 59.5139 43.2056 59.5927 43.2056H60.3464C60.4252 43.2056 60.4702 43.1718 60.4702 43.0703V40.0159C60.4702 38.8662 60.0089 38.1449 58.5914 38.1449ZM57.4777 41.5149C57.4777 40.9965 57.8377 40.6133 58.4002 40.6133C59.0302 40.6133 59.3227 41.0077 59.3227 41.5149C59.3227 42.0334 58.9627 42.4166 58.4002 42.4166C57.7364 42.4166 57.4777 42.0221 57.4777 41.5149Z" fill="white"/>
<path d="M68.5562 41.2444C68.5562 39.8806 67.4762 39.52 66.4975 39.1593C65.935 38.9451 65.2487 38.6972 65.2487 38.1224C65.2487 37.3785 65.755 37.1305 66.34 37.1305C66.7337 37.1305 67.15 37.277 67.6112 37.5363C67.7237 37.5926 67.8587 37.6039 67.9262 37.4912L68.2075 37.0065C68.275 36.8938 68.3312 36.8149 68.185 36.7022C67.5887 36.2852 66.8912 36.1612 66.25 36.1612C65.0912 36.1612 64.1462 36.8938 64.1462 38.1111C64.1462 39.3509 65.1925 39.7905 66.07 40.0948C66.7787 40.3428 67.4425 40.5907 67.4425 41.2783C67.4425 41.9094 66.97 42.2926 66.1375 42.2926C65.6762 42.2926 65.125 42.0785 64.7537 41.7178C64.63 41.6164 64.5625 41.56 64.45 41.6727L64.0225 42.1123C63.8987 42.2363 63.91 42.3039 64.0112 42.4054C64.495 42.9802 65.3275 43.262 66.16 43.262C67.5437 43.262 68.5562 42.5068 68.5562 41.2444Z" fill="white"/>
<path d="M69.4644 38.3816V41.3797C69.4644 42.4955 70.0606 43.262 71.2081 43.262C71.6131 43.262 72.1531 43.138 72.4906 42.8224C72.4906 42.8224 72.5019 42.8337 72.5131 42.8337V43.0816C72.5131 43.1718 72.5469 43.2056 72.6369 43.2056H73.4131C73.5031 43.2056 73.5481 43.1605 73.5481 43.0703V38.3703C73.5481 38.2914 73.4919 38.2351 73.4019 38.2351H72.6256C72.5356 38.2351 72.4794 38.2914 72.4794 38.3816V41.3684C72.4794 41.932 72.0631 42.349 71.5119 42.349C70.8256 42.349 70.5331 41.9207 70.5331 41.3684V38.3703C70.5331 38.2914 70.4881 38.2351 70.3869 38.2351H69.5994C69.5206 38.2351 69.4644 38.2914 69.4644 38.3816Z" fill="white"/>
<path d="M78.8674 43.0703V40.0723C78.8674 38.9564 78.2599 38.1787 77.1236 38.1787C76.7186 38.1787 76.1899 38.314 75.8524 38.6296C75.8411 38.6296 75.8299 38.6183 75.8186 38.6183V38.3703C75.8186 38.2689 75.7849 38.2351 75.6949 38.2351H74.9186C74.8286 38.2351 74.7836 38.2914 74.7836 38.3816V43.0703C74.7836 43.1605 74.8399 43.2056 74.9299 43.2056H75.7061C75.8074 43.2056 75.8524 43.1605 75.8524 43.0703V40.0723C75.8524 39.52 76.2686 39.1029 76.8311 39.1029C77.5061 39.1029 77.7986 39.52 77.7986 40.0835V43.0703C77.7986 43.1605 77.8436 43.2056 77.9449 43.2056H78.7324C78.8224 43.2056 78.8674 43.1605 78.8674 43.0703Z" fill="white"/>
<path d="M86.7563 43.0365V42.3828C86.7563 42.2814 86.7001 42.2363 86.6101 42.2363H83.8651V36.3866C83.8651 36.2965 83.8201 36.2514 83.7076 36.2514H82.9313C82.8076 36.2514 82.7738 36.2965 82.7738 36.3979V43.0478C82.7738 43.1492 82.8301 43.2056 82.9426 43.2056H86.6101C86.7113 43.2056 86.7563 43.1492 86.7563 43.0365Z" fill="white"/>
<path d="M88.8317 36.7811C88.8317 36.4317 88.528 36.1499 88.168 36.1499C87.8192 36.1499 87.5267 36.4317 87.5267 36.7811C87.5267 37.1418 87.8192 37.4123 88.1792 37.4123C88.5279 37.4123 88.8317 37.1192 88.8317 36.7811ZM88.6967 43.0703V38.3816C88.6967 38.2802 88.6404 38.2351 88.5505 38.2351H87.7629C87.673 38.2351 87.6279 38.2802 87.6279 38.3816V43.0703C87.6279 43.1605 87.6842 43.2056 87.7742 43.2056H88.5617C88.7192 43.2056 88.6967 43.0703 88.6967 43.0703Z" fill="white"/>
<path d="M92.678 36.2852C92.7117 36.1274 92.6217 36.0936 92.5092 36.0485C92.3405 35.9921 92.0255 35.9471 91.6992 35.9471C90.7655 35.9471 90.248 36.612 90.248 37.4123V38.2351H89.6855C89.5842 38.2351 89.5392 38.2802 89.5392 38.3703V38.9677C89.5392 39.0691 89.5842 39.1142 89.6742 39.1142H90.248V43.0703C90.248 43.138 90.2817 43.2056 90.383 43.2056H91.148C91.238 43.2056 91.2942 43.1605 91.2942 43.0703V39.1142H92.318C92.408 39.1142 92.453 39.0691 92.453 38.9677V38.3703C92.453 38.2802 92.408 38.2351 92.3067 38.2351H91.2942V37.5475C91.2942 37.1869 91.4405 36.9164 91.8455 36.9164C91.9805 36.9164 92.1942 36.9502 92.3067 36.984C92.4642 37.0291 92.543 36.9953 92.5655 36.8825L92.678 36.2852Z" fill="white"/>
<path d="M97.2341 40.6471V40.1173C97.2341 38.9451 96.4241 38.1562 95.1979 38.1562C93.9941 38.1562 93.1504 38.9564 93.1504 40.1173V41.391C93.1504 42.5293 93.9379 43.2732 95.1754 43.2732C95.9404 43.2732 96.6266 43.0027 97.0204 42.3377C97.1104 42.1799 97.0091 42.1123 96.9304 42.0672L96.4691 41.7516C96.3904 41.6953 96.3116 41.684 96.2216 41.7967C96.0079 42.056 95.6479 42.349 95.1979 42.349C94.5116 42.349 94.2191 41.8869 94.2191 41.3459V40.9514H96.9641C97.0991 40.9514 97.2341 40.8274 97.2341 40.6471ZM95.1979 39.0691C95.8279 39.0691 96.1654 39.4749 96.1654 39.9821V40.1737H94.2304V39.9934C94.2304 39.4073 94.6354 39.0691 95.1979 39.0691Z" fill="white"/>
<path d="M102.193 43.0478V36.3979C102.193 36.2965 102.114 36.2514 102.024 36.2514H101.237C101.124 36.2514 101.068 36.3077 101.068 36.4092V43.0591C101.068 43.1605 101.135 43.2056 101.237 43.2056H102.024C102.137 43.2056 102.193 43.1605 102.193 43.0478Z" fill="white"/>
<path d="M107.739 43.0703V40.0723C107.739 38.9564 107.132 38.1787 105.996 38.1787C105.591 38.1787 105.062 38.314 104.724 38.6296C104.713 38.6296 104.702 38.6183 104.691 38.6183V38.3703C104.691 38.2689 104.657 38.2351 104.567 38.2351H103.791C103.701 38.2351 103.656 38.2914 103.656 38.3816V43.0703C103.656 43.1605 103.712 43.2056 103.802 43.2056H104.578C104.679 43.2056 104.724 43.1605 104.724 43.0703V40.0723C104.724 39.52 105.141 39.1029 105.703 39.1029C106.378 39.1029 106.671 39.52 106.671 40.0835V43.0703C106.671 43.1605 106.716 43.2056 106.817 43.2056H107.604C107.694 43.2056 107.739 43.1605 107.739 43.0703Z" fill="white"/>
<path d="M112.461 41.808C112.461 40.7034 111.37 40.4442 110.492 40.1399C110.099 40.0046 109.885 39.8243 109.885 39.5651C109.885 39.2157 110.279 39.0691 110.627 39.0691C110.954 39.0691 111.404 39.2607 111.696 39.4862C111.752 39.5312 111.797 39.5425 111.831 39.5425C111.865 39.5425 111.899 39.52 111.932 39.4862L112.304 39.0015C112.371 38.9339 112.36 38.855 112.304 38.7986C111.842 38.3365 111.19 38.1674 110.605 38.1674C109.682 38.1787 108.85 38.6634 108.85 39.6214C108.85 40.3878 109.412 40.7598 110.087 40.9965L110.807 41.2444C111.19 41.391 111.415 41.5262 111.415 41.8418C111.415 42.1912 111.089 42.3941 110.672 42.3941C110.211 42.3941 109.829 42.1687 109.57 41.7854C109.502 41.6953 109.469 41.6615 109.356 41.7178L108.771 42.0109C108.726 42.0334 108.704 42.0785 108.704 42.1123C108.704 42.1461 108.715 42.1687 108.726 42.2025C109.075 42.9576 109.829 43.262 110.616 43.262C111.719 43.262 112.461 42.6759 112.461 41.808Z" fill="white"/>
<path d="M113.399 38.3816V41.3797C113.399 42.4955 113.995 43.262 115.142 43.262C115.547 43.262 116.087 43.138 116.425 42.8224C116.425 42.8224 116.436 42.8337 116.447 42.8337V43.0816C116.447 43.1718 116.481 43.2056 116.571 43.2056H117.347C117.437 43.2056 117.482 43.1605 117.482 43.0703V38.3703C117.482 38.2914 117.426 38.2351 117.336 38.2351H116.56C116.47 38.2351 116.414 38.2914 116.414 38.3816V41.3684C116.414 41.932 115.997 42.349 115.446 42.349C114.76 42.349 114.467 41.9207 114.467 41.3684V38.3703C114.467 38.2914 114.422 38.2351 114.321 38.2351H113.534C113.455 38.2351 113.399 38.2914 113.399 38.3816Z" fill="white"/>
<path d="M118.887 38.2463C118.797 38.2463 118.752 38.2914 118.752 38.3816V43.0703C118.752 43.1605 118.808 43.2056 118.898 43.2056H119.685C119.775 43.2056 119.82 43.1605 119.82 43.0703V40.4667C119.82 39.7567 120.09 39.2382 120.878 39.2382C121.002 39.2382 121.159 39.2833 121.294 39.2833C121.35 39.2833 121.395 39.2495 121.418 39.1368L121.575 38.4154C121.587 38.3816 121.587 38.3591 121.587 38.3252C121.587 38.2013 121.362 38.1562 121.103 38.1562C120.529 38.1562 120.012 38.483 119.753 38.9113H119.719V38.3703C119.719 38.2802 119.663 38.2463 119.562 38.2463H118.887Z" fill="white"/>
<path d="M124.147 38.1449C123.573 38.1449 122.966 38.2802 122.538 38.483C122.471 38.5056 122.448 38.5845 122.471 38.6634L122.662 39.2157C122.696 39.3058 122.752 39.3284 122.864 39.2833C123.179 39.1368 123.697 39.0353 124.001 39.0353C124.698 39.0353 124.946 39.3171 124.946 39.8243V40.0835H124.912C124.653 39.8806 124.203 39.8017 123.877 39.8017C122.684 39.8017 122.043 40.5682 122.043 41.5488C122.043 42.5744 122.662 43.2732 123.787 43.2732C124.248 43.2732 124.664 43.1605 125.002 42.8224L125.036 42.8337V43.0929C125.036 43.1605 125.069 43.2056 125.148 43.2056H125.902C125.981 43.2056 126.026 43.1718 126.026 43.0703V40.0159C126.026 38.8662 125.564 38.1449 124.147 38.1449ZM123.033 41.5149C123.033 40.9965 123.393 40.6133 123.956 40.6133C124.586 40.6133 124.878 41.0077 124.878 41.5149C124.878 42.0334 124.518 42.4166 123.956 42.4166C123.292 42.4166 123.033 42.0221 123.033 41.5149Z" fill="white"/>
<path d="M131.338 43.0703V40.0723C131.338 38.9564 130.731 38.1787 129.594 38.1787C129.189 38.1787 128.661 38.314 128.323 38.6296C128.312 38.6296 128.301 38.6183 128.289 38.6183V38.3703C128.289 38.2689 128.256 38.2351 128.166 38.2351H127.389C127.299 38.2351 127.254 38.2914 127.254 38.3816V43.0703C127.254 43.1605 127.311 43.2056 127.401 43.2056H128.177C128.278 43.2056 128.323 43.1605 128.323 43.0703V40.0723C128.323 39.52 128.739 39.1029 129.302 39.1029C129.977 39.1029 130.269 39.52 130.269 40.0835V43.0703C130.269 43.1605 130.314 43.2056 130.416 43.2056H131.203C131.293 43.2056 131.338 43.1605 131.338 43.0703Z" fill="white"/>
<path d="M136.307 42.3039C136.375 42.2137 136.352 42.1349 136.206 42.0334L135.745 41.7291C135.61 41.6389 135.553 41.6615 135.463 41.7742C135.306 41.9883 135.025 42.3377 134.473 42.3377C133.922 42.3377 133.495 41.9432 133.495 41.4022V40.0384C133.495 39.4862 133.922 39.0804 134.485 39.0804C134.743 39.0804 135.182 39.272 135.407 39.6214C135.475 39.7341 135.553 39.8356 135.711 39.7228L136.217 39.3622C136.318 39.2945 136.318 39.1593 136.273 39.0917C135.846 38.4718 135.216 38.1562 134.507 38.1562C133.326 38.1562 132.426 38.9001 132.426 40.0948V41.3797C132.426 42.5406 133.247 43.2732 134.485 43.2732C135.25 43.2732 135.857 42.9689 136.307 42.3039Z" fill="white"/>
<path d="M141.168 40.6471V40.1173C141.168 38.9451 140.358 38.1562 139.132 38.1562C137.928 38.1562 137.085 38.9564 137.085 40.1173V41.391C137.085 42.5293 137.872 43.2732 139.11 43.2732C139.875 43.2732 140.561 43.0027 140.955 42.3377C141.045 42.1799 140.943 42.1123 140.865 42.0672L140.403 41.7516C140.325 41.6953 140.246 41.684 140.156 41.7967C139.942 42.056 139.582 42.349 139.132 42.349C138.446 42.349 138.153 41.8869 138.153 41.3459V40.9514H140.898C141.033 40.9514 141.168 40.8274 141.168 40.6471ZM139.132 39.0691C139.762 39.0691 140.1 39.4749 140.1 39.9821V40.1737H138.165V39.9934C138.165 39.4073 138.57 39.0691 139.132 39.0691Z" fill="white"/>
<path d="M147.005 43.2732C147.792 43.2732 148.523 42.9689 149.007 42.2814C149.052 42.2025 149.019 42.101 148.951 42.056L148.389 41.6615C148.253 41.5713 148.186 41.6727 148.107 41.7629C147.86 42.0334 147.455 42.2926 147.016 42.2926C146.341 42.2926 145.947 41.8643 145.947 41.3121V38.1336C145.947 37.5701 146.307 37.1305 146.982 37.1305C147.432 37.1305 147.86 37.3447 148.118 37.6941C148.175 37.7842 148.298 37.8293 148.389 37.7617L148.906 37.3559C149.03 37.2545 149.019 37.1756 148.951 37.0854C148.389 36.3415 147.691 36.1499 146.949 36.1499C145.722 36.1499 144.834 36.9164 144.834 38.1111V41.3233C144.834 42.5519 145.745 43.2732 147.005 43.2732Z" fill="white"/>
<path d="M153.869 41.3571V40.0497C153.869 38.8437 153.07 38.1449 151.822 38.1449C150.618 38.1449 149.785 38.9113 149.785 40.061V41.3797C149.785 42.5744 150.573 43.2732 151.833 43.2732C153.093 43.2732 153.869 42.5857 153.869 41.3571ZM150.854 40.0723C150.854 39.4862 151.203 39.0804 151.833 39.0804C152.463 39.0804 152.8 39.4862 152.8 40.0723V41.3571C152.8 41.9545 152.429 42.349 151.822 42.349C151.169 42.349 150.854 41.932 150.854 41.3571V40.0723Z" fill="white"/>
<path d="M161.846 43.0591V40.061C161.846 38.9451 161.227 38.1562 159.944 38.1562C159.337 38.1562 158.741 38.438 158.437 38.8437H158.403C158.111 38.4154 157.537 38.1562 156.974 38.1562C155.726 38.1562 155.006 38.9677 155.006 40.061V43.0703C155.006 43.1605 155.062 43.2056 155.152 43.2056H155.939C156.041 43.2056 156.074 43.1605 156.074 43.0591V40.061C156.074 39.5425 156.412 39.0804 156.997 39.0804C157.604 39.0804 157.897 39.5425 157.897 40.061V43.0703C157.897 43.1605 157.942 43.2056 158.043 43.2056H158.819C158.921 43.2056 158.954 43.1605 158.954 43.0591V40.061C158.954 39.5538 159.359 39.0804 159.866 39.0804C160.484 39.0804 160.777 39.5425 160.777 40.061V43.0703C160.777 43.1605 160.822 43.2056 160.923 43.2056H161.711C161.801 43.2056 161.846 43.1605 161.846 43.0591Z" fill="white"/>
<path d="M163.026 38.3703V45.1104C163.026 45.1893 163.082 45.2457 163.172 45.2457H163.948C164.049 45.2457 164.094 45.2006 164.094 45.0991V42.9802L164.128 42.9576C164.398 43.1605 164.713 43.2732 165.253 43.2732C166.468 43.2732 167.109 42.4054 167.109 41.3684V40.0497C167.109 38.9001 166.457 38.19 165.343 38.19C164.837 38.19 164.353 38.3478 164.061 38.6521C164.049 38.6521 164.038 38.6408 164.027 38.6408V38.3703C164.027 38.2802 163.971 38.2351 163.881 38.2351H163.161C163.059 38.2351 163.026 38.2914 163.026 38.3703ZM164.094 40.0835C164.094 39.5312 164.522 39.1029 165.096 39.1029C165.759 39.1029 166.052 39.5876 166.052 40.1624V41.3684C166.052 41.9207 165.759 42.3603 165.062 42.3603C164.364 42.3603 164.094 41.8305 164.094 41.2557V40.0835Z" fill="white"/>
<path d="M170.18 38.1449C169.606 38.1449 168.998 38.2802 168.571 38.483C168.503 38.5056 168.481 38.5845 168.503 38.6634L168.695 39.2157C168.728 39.3058 168.785 39.3284 168.897 39.2833C169.212 39.1368 169.73 39.0353 170.033 39.0353C170.731 39.0353 170.978 39.3171 170.978 39.8243V40.0835H170.945C170.686 39.8806 170.236 39.8017 169.91 39.8017C168.717 39.8017 168.076 40.5682 168.076 41.5488C168.076 42.5744 168.695 43.2732 169.82 43.2732C170.281 43.2732 170.697 43.1605 171.035 42.8224L171.068 42.8337V43.0929C171.068 43.1605 171.102 43.2056 171.181 43.2056H171.935C172.013 43.2056 172.058 43.1718 172.058 43.0703V40.0159C172.058 38.8662 171.597 38.1449 170.18 38.1449ZM169.066 41.5149C169.066 40.9965 169.426 40.6133 169.988 40.6133C170.618 40.6133 170.911 41.0077 170.911 41.5149C170.911 42.0334 170.551 42.4166 169.988 42.4166C169.325 42.4166 169.066 42.0221 169.066 41.5149Z" fill="white"/>
<path d="M177.371 43.0703V40.0723C177.371 38.9564 176.763 38.1787 175.627 38.1787C175.222 38.1787 174.693 38.314 174.356 38.6296C174.345 38.6296 174.333 38.6183 174.322 38.6183V38.3703C174.322 38.2689 174.288 38.2351 174.198 38.2351H173.422C173.332 38.2351 173.287 38.2914 173.287 38.3816V43.0703C173.287 43.1605 173.343 43.2056 173.433 43.2056H174.21C174.311 43.2056 174.356 43.1605 174.356 43.0703V40.0723C174.356 39.52 174.772 39.1029 175.335 39.1029C176.01 39.1029 176.302 39.52 176.302 40.0835V43.0703C176.302 43.1605 176.347 43.2056 176.448 43.2056H177.236C177.326 43.2056 177.371 43.1605 177.371 43.0703Z" fill="white"/>
<path d="M179.291 38.4154C179.257 38.314 179.201 38.2351 179.044 38.2351H178.29C178.177 38.2351 178.132 38.2914 178.132 38.3816C178.132 38.4041 178.132 38.4267 178.144 38.4492L179.415 42.9802C179.46 43.138 179.539 43.2056 179.685 43.2056H179.932L179.37 44.9639C179.302 45.1217 179.37 45.2569 179.539 45.2569H180.112C180.315 45.2569 180.416 45.1329 180.45 45.0202L182.587 38.4718C182.599 38.438 182.599 38.4154 182.599 38.3929C182.599 38.3027 182.542 38.2351 182.43 38.2351H181.766C181.575 38.2351 181.519 38.3478 181.485 38.4492L180.27 42.2588H180.247L179.831 40.5682C179.651 39.8468 179.482 39.1368 179.291 38.4154Z" fill="white"/>
<path d="M190.061 43.0365V42.3828C190.061 42.2814 190.005 42.2363 189.915 42.2363H187.17V36.3866C187.17 36.2965 187.125 36.2514 187.012 36.2514H186.236C186.112 36.2514 186.078 36.2965 186.078 36.3979V43.0478C186.078 43.1492 186.135 43.2056 186.247 43.2056H189.915C190.016 43.2056 190.061 43.1492 190.061 43.0365Z" fill="white"/>
<path d="M192.136 36.7811C192.136 36.4317 191.832 36.1499 191.472 36.1499C191.124 36.1499 190.831 36.4317 190.831 36.7811C190.831 37.1418 191.124 37.4123 191.484 37.4123C191.832 37.4123 192.136 37.1192 192.136 36.7811ZM192.001 43.0703V38.3816C192.001 38.2802 191.945 38.2351 191.855 38.2351H191.067C190.977 38.2351 190.932 38.2802 190.932 38.3816V43.0703C190.932 43.1605 190.989 43.2056 191.079 43.2056H191.866C192.024 43.2056 192.001 43.0703 192.001 43.0703Z" fill="white"/>
<path d="M200.1 43.0591V40.061C200.1 38.9451 199.481 38.1562 198.199 38.1562C197.591 38.1562 196.995 38.438 196.691 38.8437H196.657C196.365 38.4154 195.791 38.1562 195.229 38.1562C193.98 38.1562 193.26 38.9677 193.26 40.061V43.0703C193.26 43.1605 193.316 43.2056 193.406 43.2056H194.194C194.295 43.2056 194.329 43.1605 194.329 43.0591V40.061C194.329 39.5425 194.666 39.0804 195.251 39.0804C195.859 39.0804 196.151 39.5425 196.151 40.061V43.0703C196.151 43.1605 196.196 43.2056 196.297 43.2056H197.074C197.175 43.2056 197.209 43.1605 197.209 43.0591V40.061C197.209 39.5538 197.614 39.0804 198.12 39.0804C198.739 39.0804 199.031 39.5425 199.031 40.061V43.0703C199.031 43.1605 199.076 43.2056 199.177 43.2056H199.965C200.055 43.2056 200.1 43.1605 200.1 43.0591Z" fill="white"/>
<path d="M202.551 36.7811C202.551 36.4317 202.247 36.1499 201.887 36.1499C201.539 36.1499 201.246 36.4317 201.246 36.7811C201.246 37.1418 201.539 37.4123 201.899 37.4123C202.247 37.4123 202.551 37.1192 202.551 36.7811ZM202.416 43.0703V38.3816C202.416 38.2802 202.36 38.2351 202.27 38.2351H201.482C201.392 38.2351 201.347 38.2802 201.347 38.3816V43.0703C201.347 43.1605 201.404 43.2056 201.494 43.2056H202.281C202.439 43.2056 202.416 43.0703 202.416 43.0703Z" fill="white"/>
<path d="M206.521 42.9126L206.42 42.3715C206.397 42.2476 206.352 42.1799 206.139 42.225C205.992 42.2476 205.677 42.2926 205.554 42.2926C205.149 42.2926 205.025 42.056 205.025 41.6615V39.1142H206.127C206.229 39.1142 206.274 39.0691 206.274 38.979V38.3703C206.274 38.2802 206.217 38.2351 206.127 38.2351H205.025V36.9727C205.025 36.8938 204.98 36.8149 204.845 36.8487L204.114 37.0178C204.012 37.0403 203.979 37.1192 203.979 37.1869V38.2351H203.394C203.315 38.2351 203.259 38.2802 203.259 38.3816V38.979C203.259 39.0691 203.315 39.1142 203.416 39.1142H203.979V41.8643C203.979 42.6646 204.305 43.2732 205.385 43.2732C205.7 43.2732 206.116 43.2394 206.364 43.1492C206.476 43.1042 206.544 43.0703 206.521 42.9126Z" fill="white"/>
<path d="M211.217 40.6471V40.1173C211.217 38.9451 210.407 38.1562 209.181 38.1562C207.977 38.1562 207.134 38.9564 207.134 40.1173V41.391C207.134 42.5293 207.921 43.2732 209.159 43.2732C209.924 43.2732 210.61 43.0027 211.004 42.3377C211.094 42.1799 210.992 42.1123 210.914 42.0672L210.452 41.7516C210.374 41.6953 210.295 41.684 210.205 41.7967C209.991 42.056 209.631 42.349 209.181 42.349C208.495 42.349 208.202 41.8869 208.202 41.3459V40.9514H210.947C211.082 40.9514 211.217 40.8274 211.217 40.6471ZM209.181 39.0691C209.811 39.0691 210.149 39.4749 210.149 39.9821V40.1737H208.214V39.9934C208.214 39.4073 208.619 39.0691 209.181 39.0691Z" fill="white"/>
<path d="M216.249 43.0703V36.1612C216.249 36.0823 216.204 36.0259 216.103 36.0259H215.326C215.236 36.0259 215.18 36.071 215.18 36.1725V38.4492C215.169 38.4605 215.158 38.4492 215.146 38.4605C214.899 38.2802 214.55 38.1674 214.055 38.1674C212.829 38.1674 212.165 39.024 212.165 40.0835V41.391C212.165 42.5631 212.84 43.262 213.954 43.262C214.415 43.262 214.933 43.1492 215.214 42.8337C215.225 42.8337 215.248 42.8449 215.259 42.8449V43.0816C215.259 43.1718 215.315 43.2056 215.394 43.2056H216.125C216.226 43.2056 216.249 43.1605 216.249 43.0703ZM215.18 41.3684C215.18 41.9094 214.764 42.349 214.179 42.349C213.504 42.349 213.234 41.8756 213.234 41.2895V40.0835C213.234 39.5312 213.515 39.0917 214.213 39.0917C214.91 39.0917 215.191 39.5989 215.191 40.1624C215.191 40.5682 215.18 40.9627 215.18 41.3684Z" fill="white"/>
</svg>
