<svg width="41" height="40" viewBox="0 0 41 40" fill="none" xmlns="http://www.w3.org/2000/svg">
<path d="M20.6941 2.5C11.03 2.5 3.19409 10.3359 3.19409 20C3.19409 29.6641 11.03 37.5 20.6941 37.5C30.3582 37.5 38.1941 29.6641 38.1941 20C38.1941 10.3359 30.3582 2.5 20.6941 2.5ZM20.6941 34.5312C12.6707 34.5312 6.16284 28.0234 6.16284 20C6.16284 11.9766 12.6707 5.46875 20.6941 5.46875C28.7175 5.46875 35.2253 11.9766 35.2253 20C35.2253 28.0234 28.7175 34.5312 20.6941 34.5312Z" fill="white"/>
<path d="M28.7957 19.4962L17.2293 11.0977C17.1365 11.0297 17.0267 10.9888 16.912 10.9796C16.7974 10.9703 16.6824 10.9931 16.5799 11.0453C16.4775 11.0976 16.3915 11.1772 16.3317 11.2755C16.2718 11.3737 16.2404 11.4866 16.241 11.6016V28.3985C16.241 28.9102 16.8191 29.1993 17.2293 28.9024L28.7957 20.504C28.8755 20.4464 28.9406 20.3707 28.9854 20.2831C29.0303 20.1955 29.0537 20.0985 29.0537 20.0001C29.0537 19.9016 29.0303 19.8046 28.9854 19.717C28.9406 19.6294 28.8755 19.5537 28.7957 19.4962ZM18.7332 24.7305V15.2696L25.2449 20.0001L18.7332 24.7305Z" fill="white"/>
</svg>
