<svg width="25" height="20" viewBox="0 0 25 20" fill="none" xmlns="http://www.w3.org/2000/svg">
<path d="M22.4316 4.98434C22.4481 5.20361 22.4481 5.42163 22.4481 5.63964C22.4481 12.3117 17.2921 20 7.86943 20C4.96642 20 2.26949 19.1718 0 17.7334C0.412172 17.7797 0.809078 17.796 1.23779 17.796C3.54416 17.8015 5.78522 17.0419 7.59974 15.6396C6.53041 15.6206 5.49381 15.2731 4.63469 14.6457C3.77557 14.0183 3.13681 13.1423 2.8076 12.1401C3.12436 12.1864 3.4424 12.2178 3.7757 12.2178C4.23494 12.2178 4.69672 12.1551 5.12543 12.0461C3.96494 11.8153 2.92142 11.1958 2.17232 10.2928C1.42322 9.38983 1.01477 8.25917 1.01644 7.0931V7.03045C1.69957 7.40509 2.49211 7.63939 3.33172 7.67072C2.62834 7.21036 2.0516 6.58567 1.65294 5.85239C1.25427 5.11911 1.04609 4.30003 1.04697 3.46824C1.04697 2.53101 1.30012 1.67147 1.7441 0.922191C3.03167 2.48217 4.63757 3.75838 6.45779 4.66816C8.278 5.57794 10.2719 6.10101 12.3105 6.20348C12.2316 5.82759 12.1832 5.43791 12.1832 5.04699C12.1829 4.38411 12.3152 3.72768 12.5726 3.1152C12.83 2.50272 13.2074 1.94622 13.6833 1.47749C14.1592 1.00877 14.7242 0.637027 15.3461 0.383509C15.9679 0.129991 16.6344 -0.000328755 17.3074 6.22808e-07C18.7831 6.22808e-07 20.115 0.608947 21.0513 1.59379C22.1985 1.37529 23.2986 0.962815 24.3029 0.37464C23.9205 1.54093 23.1195 2.52989 22.0499 3.15625C23.0674 3.04195 24.0617 2.77841 25 2.37439C24.2992 3.38065 23.4308 4.26306 22.4316 4.98434Z" fill="#7C7C7B"/>
</svg>
