<svg width="22" height="22" viewBox="0 0 22 22" fill="none" xmlns="http://www.w3.org/2000/svg">
<path d="M20.3547 5.08737C17.0638 -0.000168176 10.3448 -1.51268 5.13415 1.64984C0.0606259 4.81237 -1.58484 11.6874 1.70609 16.775L1.98034 17.1875L0.883359 21.3125L4.99702 20.2125L5.40839 20.4875C7.19098 21.45 9.11069 22 11.0304 22C13.0872 22 15.1441 21.45 16.9266 20.35C22.0002 17.05 23.5085 10.3124 20.3547 5.08737ZM17.4751 15.675C16.9266 16.5 16.241 17.05 15.2812 17.1875C14.7327 17.1875 14.0471 17.4625 11.3046 16.3625C8.97357 15.2624 7.05386 13.4749 5.68263 11.4124C4.8599 10.4499 4.44853 9.2124 4.31141 7.97489C4.31141 6.87489 4.72278 5.91238 5.40839 5.22487C5.68263 4.94987 5.95688 4.81237 6.23112 4.81237H6.91673C7.19098 4.81237 7.46522 4.81237 7.60234 5.36237C7.87659 6.04988 8.5622 7.69989 8.5622 7.83739C8.69932 7.97489 8.69932 8.2499 8.5622 8.3874C8.69932 8.6624 8.5622 8.9374 8.42508 9.0749C8.28796 9.2124 8.15083 9.4874 8.01371 9.62491C7.73947 9.76241 7.60234 10.0374 7.73947 10.3124C8.28795 11.1374 8.97357 11.9624 9.65918 12.6499C10.4819 13.3374 11.3046 13.8874 12.2645 14.2999C12.5387 14.4374 12.813 14.4374 12.9501 14.1624C13.0872 13.8874 13.7728 13.1999 14.0471 12.9249C14.3213 12.6499 14.4585 12.6499 14.7327 12.7874L16.9266 13.8874C17.2009 14.0249 17.4751 14.1624 17.6123 14.2999C17.7494 14.7124 17.7494 15.2624 17.4751 15.675Z" fill="#7C7C7B"/>
</svg>
